# Blender 5.1.0
# www.blender.org
mtllib eyes.mtl
g AnglerFish_Angelic_Eyes_0_Mesh
v -0.001053 0.000712 0.000268
v -0.001029 0.000761 0.000447
v -0.000984 0.000694 0.000278
v -0.001279 -0.000161 0.000541
v -0.001283 -0.000139 0.000354
v -0.001214 -0.000157 0.000364
v -0.000924 0.000682 0.000314
v -0.001154 -0.000170 0.000401
v -0.000881 0.000676 0.000371
v -0.001112 -0.000176 0.000459
v -0.001094 -0.000176 0.000528
v -0.000862 0.000678 0.000440
v -0.000870 0.000687 0.000511
v -0.001103 -0.000167 0.000599
v -0.000904 0.000702 0.000572
v -0.001137 -0.000153 0.000661
v -0.000958 0.000721 0.000615
v -0.001191 -0.000134 0.000704
v -0.001024 0.000741 0.000632
v -0.001257 -0.000114 0.000721
v -0.001093 0.000758 0.000622
v -0.001325 -0.000095 0.000710
v -0.001153 0.000771 0.000586
v -0.001384 -0.000081 0.000673
v -0.001426 -0.000075 0.000616
v -0.001196 0.000777 0.000529
v -0.001215 0.000775 0.000460
v -0.001445 -0.000076 0.000547
v -0.001207 0.000766 0.000390
v -0.001437 -0.000085 0.000476
v -0.001173 0.000750 0.000328
v -0.001403 -0.000100 0.000415
v -0.001349 -0.000119 0.000372
v -0.001119 0.000731 0.000286
v 0.001077 0.000712 0.000268
v 0.001008 0.000694 0.000278
v 0.001053 0.000761 0.000447
v 0.001296 -0.000148 0.000537
v 0.001234 -0.000147 0.000362
v 0.001303 -0.000131 0.000352
v 0.000948 0.000682 0.000314
v 0.001173 -0.000158 0.000397
v 0.000905 0.000676 0.000371
v 0.001129 -0.000162 0.000454
v 0.001110 -0.000160 0.000522
v 0.000886 0.000678 0.000440
v 0.000894 0.000687 0.000511
v 0.001117 -0.000150 0.000593
v 0.000928 0.000702 0.000572
v 0.001151 -0.000135 0.000654
v 0.000982 0.000721 0.000615
v 0.001205 -0.000117 0.000697
v 0.001048 0.000741 0.000632
v 0.001272 -0.000099 0.000715
v 0.001117 0.000758 0.000622
v 0.001341 -0.000083 0.000706
v 0.001177 0.000771 0.000586
v 0.001402 -0.000071 0.000670
v 0.001446 -0.000067 0.000613
v 0.001220 0.000777 0.000529
v 0.001239 0.000775 0.000460
v 0.001465 -0.000069 0.000544
v 0.001231 0.000766 0.000390
v 0.001457 -0.000079 0.000474
v 0.001197 0.000750 0.000328
v 0.001424 -0.000094 0.000413
v 0.001370 -0.000112 0.000370
v 0.001143 0.000731 0.000286
v -0.001268 -0.000051 0.000190
v -0.001235 0.000090 0.000071
v -0.001070 0.000048 0.000096
v -0.001141 -0.000083 0.000208
v -0.001191 0.000263 0.000017
v -0.001140 0.000442 0.000036
v -0.000975 0.000400 0.000060
v -0.001012 0.000217 0.000043
v -0.001092 0.000600 0.000124
v -0.001053 0.000712 0.000268
v -0.000984 0.000694 0.000278
v -0.000965 0.000567 0.000142
v -0.001283 -0.000139 0.000354
v -0.001214 -0.000157 0.000364
v -0.001029 -0.000107 0.000275
v -0.001154 -0.000170 0.000401
v -0.000854 0.000184 0.000138
v -0.000924 0.000017 0.000183
v -0.000854 0.000544 0.000209
v -0.000829 0.000369 0.000147
v -0.000924 0.000682 0.000314
v -0.000774 0.000533 0.000314
v -0.000726 0.000355 0.000285
v -0.000821 0.000003 0.000320
v -0.000951 -0.000118 0.000381
v -0.000742 0.000169 0.000287
v -0.000881 0.000676 0.000371
v -0.001112 -0.000176 0.000459
v -0.000775 0.000007 0.000487
v -0.000917 -0.000116 0.000509
v -0.000680 0.000360 0.000451
v -0.000692 0.000174 0.000467
v -0.000862 0.000678 0.000440
v -0.000740 0.000537 0.000442
v -0.001094 -0.000176 0.000528
v -0.000740 0.000537 0.000442
v -0.000862 0.000678 0.000440
v -0.000870 0.000687 0.000511
v -0.000754 0.000554 0.000572
v -0.001094 -0.000176 0.000528
v -0.000917 -0.000116 0.000509
v -0.000933 -0.000101 0.000640
v -0.001103 -0.000167 0.000599
v -0.000775 0.000007 0.000487
v -0.000692 0.000174 0.000467
v -0.000713 0.000198 0.000651
v -0.000796 0.000028 0.000658
v -0.000680 0.000360 0.000451
v -0.000699 0.000382 0.000621
v -0.000996 -0.000074 0.000754
v -0.001137 -0.000153 0.000661
v -0.000801 0.000238 0.000811
v -0.000878 0.000064 0.000807
v -0.000816 0.000582 0.000685
v -0.000780 0.000419 0.000769
v -0.000904 0.000702 0.000572
v -0.001008 0.000109 0.000910
v -0.001096 -0.000039 0.000833
v -0.000911 0.000465 0.000872
v -0.000943 0.000287 0.000923
v -0.000958 0.000721 0.000615
v -0.000916 0.000617 0.000764
v -0.001191 -0.000134 0.000704
v -0.001168 0.000158 0.000952
v -0.001218 -0.000001 0.000865
v -0.001071 0.000512 0.000915
v -0.001116 0.000339 0.000969
v -0.001024 0.000741 0.000632
v -0.001039 0.000653 0.000797
v -0.001257 -0.000114 0.000721
v -0.001343 0.000033 0.000846
v -0.001325 -0.000095 0.000710
v -0.001295 0.000385 0.000943
v -0.001332 0.000202 0.000927
v -0.001166 0.000686 0.000778
v -0.001237 0.000555 0.000891
v -0.001093 0.000758 0.000622
v -0.001453 0.000418 0.000848
v -0.001477 0.000233 0.000839
v -0.001277 0.000709 0.000711
v -0.001382 0.000585 0.000803
v -0.001454 0.000057 0.000778
v -0.001153 0.000771 0.000586
v -0.001384 -0.000081 0.000673
v -0.001581 0.000247 0.000702
v -0.001532 0.000069 0.000672
v -0.001486 0.000599 0.000666
v -0.001565 0.000433 0.000699
v -0.001196 0.000777 0.000529
v -0.001356 0.000720 0.000606
v -0.001426 -0.000075 0.000616
v -0.001532 0.000595 0.000500
v -0.001614 0.000428 0.000519
v -0.001215 0.000775 0.000460
v -0.001391 0.000716 0.000479
v -0.001567 0.000066 0.000545
v -0.001445 -0.000076 0.000547
v -0.001627 0.000242 0.000535
v -0.001445 -0.000076 0.000547
v -0.001567 0.000066 0.000545
v -0.001552 0.000049 0.000414
v -0.001437 -0.000085 0.000476
v -0.001627 0.000242 0.000535
v -0.001614 0.000428 0.000519
v -0.001593 0.000404 0.000335
v -0.001607 0.000220 0.000365
v -0.001532 0.000595 0.000500
v -0.001391 0.000716 0.000479
v -0.001377 0.000699 0.000349
v -0.001512 0.000572 0.000329
v -0.001215 0.000775 0.000460
v -0.001207 0.000766 0.000390
v -0.001315 0.000671 0.000235
v -0.001431 0.000535 0.000182
v -0.001526 0.000183 0.000217
v -0.001490 0.000020 0.000301
v -0.001506 0.000364 0.000175
v -0.001173 0.000750 0.000328
v -0.001403 -0.000100 0.000415
v -0.001396 0.000138 0.000114
v -0.001390 -0.000015 0.000222
v -0.001301 0.000490 0.000078
v -0.001364 0.000315 0.000064
v -0.001119 0.000731 0.000286
v -0.001215 0.000636 0.000156
v -0.001349 -0.000119 0.000372
v 0.001290 -0.000047 0.000188
v 0.001163 -0.000078 0.000207
v 0.001093 0.000050 0.000095
v 0.001259 0.000091 0.000071
v 0.001215 0.000263 0.000017
v 0.001036 0.000218 0.000043
v 0.000999 0.000400 0.000060
v 0.001164 0.000442 0.000036
v 0.001116 0.000600 0.000124
v 0.000989 0.000567 0.000142
v 0.001008 0.000694 0.000278
v 0.001077 0.000712 0.000268
v 0.001303 -0.000131 0.000352
v 0.001234 -0.000147 0.000362
v 0.001173 -0.000158 0.000397
v 0.001051 -0.000099 0.000273
v 0.000947 0.000021 0.000182
v 0.000878 0.000185 0.000138
v 0.000853 0.000369 0.000147
v 0.000878 0.000544 0.000209
v 0.000948 0.000682 0.000314
v 0.000853 0.000369 0.000147
v 0.000750 0.000355 0.000285
v 0.000798 0.000533 0.000314
v 0.000878 0.000544 0.000209
v 0.001051 -0.000099 0.000273
v 0.000971 -0.000107 0.000377
v 0.000843 0.000009 0.000319
v 0.000947 0.000021 0.000182
v 0.000878 0.000185 0.000138
v 0.000766 0.000171 0.000286
v 0.000905 0.000676 0.000371
v 0.000948 0.000682 0.000314
v 0.001173 -0.000158 0.000397
v 0.001129 -0.000162 0.000454
v 0.000935 -0.000102 0.000504
v 0.000797 0.000015 0.000485
v 0.000716 0.000177 0.000466
v 0.000704 0.000360 0.000451
v 0.000764 0.000537 0.000442
v 0.000886 0.000678 0.000440
v 0.001110 -0.000160 0.000522
v 0.000778 0.000554 0.000572
v 0.000894 0.000687 0.000511
v 0.001117 -0.000150 0.000593
v 0.000949 -0.000084 0.000634
v 0.000816 0.000039 0.000654
v 0.000737 0.000202 0.000650
v 0.000723 0.000383 0.000621
v 0.001151 -0.000135 0.000654
v 0.001011 -0.000056 0.000747
v 0.000897 0.000075 0.000802
v 0.000824 0.000241 0.000810
v 0.000804 0.000419 0.000769
v 0.000840 0.000582 0.000685
v 0.000928 0.000702 0.000572
v 0.001111 -0.000023 0.000827
v 0.001028 0.000119 0.000906
v 0.000966 0.000290 0.000922
v 0.000935 0.000465 0.000872
v 0.000940 0.000617 0.000764
v 0.000982 0.000721 0.000615
v 0.001205 -0.000117 0.000697
v 0.001235 0.000011 0.000860
v 0.001189 0.000165 0.000949
v 0.001139 0.000340 0.000969
v 0.001095 0.000512 0.000915
v 0.001063 0.000653 0.000797
v 0.001048 0.000741 0.000632
v 0.001272 -0.000099 0.000715
v 0.001341 -0.000083 0.000706
v 0.001362 0.000041 0.000842
v 0.001355 0.000205 0.000926
v 0.001319 0.000385 0.000943
v 0.001261 0.000555 0.000891
v 0.001190 0.000686 0.000778
v 0.001117 0.000758 0.000622
v 0.001501 0.000234 0.000839
v 0.001477 0.000418 0.000848
v 0.001406 0.000585 0.000803
v 0.001301 0.000709 0.000711
v 0.001475 0.000063 0.000776
v 0.001177 0.000771 0.000586
v 0.001402 -0.000071 0.000670
v 0.001475 0.000063 0.000776
v 0.001554 0.000072 0.000671
v 0.001605 0.000248 0.000701
v 0.001501 0.000234 0.000839
v 0.001477 0.000418 0.000848
v 0.001589 0.000433 0.000699
v 0.001510 0.000599 0.000666
v 0.001406 0.000585 0.000803
v 0.001301 0.000709 0.000711
v 0.001380 0.000720 0.000606
v 0.001220 0.000777 0.000529
v 0.001177 0.000771 0.000586
v 0.001402 -0.000071 0.000670
v 0.001446 -0.000067 0.000613
v 0.001638 0.000428 0.000519
v 0.001556 0.000595 0.000500
v 0.001415 0.000716 0.000479
v 0.001239 0.000775 0.000460
v 0.001465 -0.000069 0.000544
v 0.001590 0.000068 0.000544
v 0.001650 0.000243 0.000535
v 0.001457 -0.000079 0.000474
v 0.001575 0.000051 0.000414
v 0.001631 0.000220 0.000365
v 0.001617 0.000404 0.000335
v 0.001536 0.000572 0.000329
v 0.001401 0.000699 0.000349
v 0.001231 0.000766 0.000390
v 0.001455 0.000535 0.000182
v 0.001339 0.000671 0.000235
v 0.001513 0.000023 0.000301
v 0.001550 0.000183 0.000217
v 0.001530 0.000364 0.000175
v 0.001197 0.000750 0.000328
v 0.001424 -0.000094 0.000413
v 0.001413 -0.000012 0.000221
v 0.001420 0.000138 0.000114
v 0.001388 0.000315 0.000064
v 0.001325 0.000490 0.000078
v 0.001239 0.000636 0.000156
v 0.001143 0.000731 0.000286
v 0.001370 -0.000112 0.000370
v 0.000014 0.000778 0.002120
v 0.000001 0.000778 0.002119
v 0.000001 0.000841 0.002072
v 0.000021 0.000839 0.002074
v -0.000060 0.000771 0.002243
v -0.000061 0.000792 0.002282
v -0.000080 0.000837 0.002303
v -0.000095 0.000807 0.002261
v 0.000001 0.000778 0.002119
v -0.000014 0.000778 0.002120
v -0.000021 0.000839 0.002074
v 0.000001 0.000841 0.002072
v 0.000001 0.000791 0.002301
v 0.000002 0.000846 0.002335
v -0.000080 0.000837 0.002303
v -0.000040 0.000761 0.002167
v -0.000077 0.000802 0.002126
v -0.000021 0.000839 0.002074
v -0.000052 0.000761 0.002206
v -0.000095 0.000807 0.002261
v -0.000099 0.000792 0.002195
v -0.000099 0.000792 0.002195
v -0.000077 0.000802 0.002126
v 0.000083 0.000964 0.002118
v 0.000020 0.000952 0.002079
v 0.000014 0.001004 0.002124
v 0.000044 0.001016 0.002163
v 0.000087 0.000913 0.002309
v 0.000119 0.000916 0.002270
v 0.000080 0.000993 0.002251
v 0.000070 0.000972 0.002290
v -0.000125 0.000950 0.002199
v -0.000117 0.000917 0.002272
v -0.000078 0.000993 0.002252
v -0.000066 0.001012 0.002210
v -0.000020 0.000952 0.002079
v -0.000083 0.000964 0.002119
v -0.000043 0.001016 0.002164
v -0.000013 0.001004 0.002124
v -0.000085 0.000913 0.002310
v 0.000002 0.000939 0.002333
v 0.000001 0.000990 0.002299
v -0.000069 0.000972 0.002291
v 0.000126 0.000950 0.002198
v 0.000067 0.001012 0.002209
v 0.000001 0.000990 0.002299
v 0.000002 0.001016 0.002262
v 0.000002 0.001016 0.002262
v 0.000001 0.001029 0.002216
v 0.000001 0.001024 0.002166
v 0.000001 0.001029 0.002216
v 0.000001 0.001024 0.002166
v 0.000001 0.001006 0.002125
v 0.000001 0.001006 0.002125
v 0.000001 0.000956 0.002079
v 0.000002 0.000939 0.002333
v 0.000001 0.000956 0.002079
v 0.000022 0.000896 0.002065
v 0.000001 0.000899 0.002063
v 0.000001 0.000791 0.002301
v 0.000062 0.000792 0.002281
v 0.000081 0.000836 0.002303
v 0.000002 0.000846 0.002335
v 0.000002 0.000893 0.002342
v 0.000087 0.000874 0.002310
v -0.000116 0.000860 0.002272
v -0.000086 0.000874 0.002311
v 0.000001 0.000899 0.002063
v -0.000022 0.000896 0.002065
v 0.000053 0.000760 0.002205
v 0.000041 0.000761 0.002167
v 0.000077 0.000802 0.002125
v 0.000099 0.000792 0.002194
v 0.000138 0.000866 0.002194
v 0.000098 0.000882 0.002103
v 0.000002 0.000893 0.002342
v -0.000099 0.000882 0.002105
v -0.000137 0.000867 0.002196
v 0.000061 0.000770 0.002242
v 0.000096 0.000806 0.002260
v 0.000118 0.000859 0.002271
v 0.000014 0.000778 0.002120
v 0.000021 0.000839 0.002074
v -0.000077 0.000802 0.002126
v -0.000099 0.000792 0.002195
v -0.000095 0.000807 0.002261
v -0.000021 0.000839 0.002074
v -0.000080 0.000837 0.002303
v 0.000002 0.000846 0.002335
v 0.000001 0.000841 0.002072
v 0.000001 0.000841 0.002072
vn 0.2057 0.8474 -0.4895
vn 0.2593 0.9609 -0.0972
vn 0.3566 0.8089 -0.4675
vn -0.2685 -0.9595 0.0852
vn -0.2704 -0.9089 -0.3174
vn -0.1192 -0.9477 -0.2960
vn 0.4893 0.7812 -0.3878
vn 0.0132 -0.9759 -0.2178
vn 0.5836 0.7684 -0.2626
vn 0.1071 -0.9897 -0.0948
vn 0.1487 -0.9873 0.0552
vn 0.6253 0.7725 -0.1110
vn 0.6078 0.7929 0.0439
vn 0.1311 -0.9687 0.2106
vn 0.5340 0.8264 0.1787
vn 0.0552 -0.9357 0.3484
vn 0.4149 0.8680 0.2726
vn -0.0690 -0.8925 0.4458
vn 0.2689 0.9114 0.3116
vn -0.2208 -0.8459 0.4854
vn 0.1180 0.9499 0.2895
vn -0.3741 -0.8046 0.4612
vn -0.0148 0.9776 0.2098
vn -0.5044 -0.7755 0.3798
vn -0.5940 -0.7629 0.2554
vn -0.1091 0.9904 0.0847
vn -0.1507 0.9863 -0.0669
vn -0.6319 -0.7679 0.1054
vn -0.1332 0.9659 -0.2219
vn -0.6125 -0.7890 -0.0489
vn -0.0594 0.9324 -0.3566
vn -0.5374 -0.8231 -0.1836
vn -0.4173 -0.8652 -0.2780
vn 0.0596 0.8907 -0.4506
vn -0.2057 0.8474 -0.4895
vn -0.3565 0.8089 -0.4675
vn -0.2593 0.9609 -0.0972
vn 0.2393 -0.9652 0.1051
vn 0.1074 -0.9559 -0.2732
vn 0.2567 -0.9201 -0.2960
vn -0.4893 0.7811 -0.3878
vn -0.0234 -0.9808 -0.1938
vn -0.5836 0.7684 -0.2627
vn -0.1157 -0.9907 -0.0710
vn -0.1559 -0.9849 0.0756
vn -0.6253 0.7725 -0.1111
vn -0.6078 0.7929 0.0439
vn -0.1392 -0.9646 0.2240
vn -0.5339 0.8264 0.1786
vn -0.0686 -0.9332 0.3526
vn -0.4149 0.8680 0.2726
vn 0.0456 -0.8952 0.4433
vn -0.2689 0.9114 0.3115
vn 0.1874 -0.8557 0.4824
vn -0.1180 0.9499 0.2895
vn 0.3359 -0.8203 0.4629
vn 0.0147 0.9776 0.2099
vn 0.4680 -0.7946 0.3867
vn 0.5630 -0.7828 0.2651
vn 0.1091 0.9904 0.0847
vn 0.1507 0.9863 -0.0669
vn 0.6059 -0.7869 0.1170
vn 0.1333 0.9659 -0.2219
vn 0.5901 -0.8066 -0.0347
vn 0.0594 0.9324 -0.3566
vn 0.5181 -0.8389 -0.1667
vn 0.4010 -0.8788 -0.2585
vn -0.0596 0.8907 -0.4506
vn -0.2365 -0.7248 -0.6471
vn -0.1697 -0.4334 -0.8851
vn 0.1774 -0.5219 -0.8344
vn 0.0324 -0.7929 -0.6085
vn -0.0784 -0.0794 -0.9938
vn 0.0244 0.2861 -0.9579
vn 0.3715 0.1976 -0.9072
vn 0.2960 -0.1749 -0.9391
vn 0.1239 0.6109 -0.7820
vn 0.2057 0.8473 -0.4896
vn 0.3566 0.8089 -0.4676
vn 0.3930 0.5423 -0.7426
vn -0.1192 -0.9477 -0.2961
vn 0.2695 -0.8420 -0.4674
vn 0.0133 -0.9759 -0.2179
vn 0.6252 -0.2437 -0.7414
vn 0.4827 -0.5857 -0.6511
vn 0.6297 0.4928 -0.6006
vn 0.6768 0.1337 -0.7239
vn 0.4893 0.7811 -0.3879
vn 0.7980 0.4700 -0.3773
vn 0.8939 0.1043 -0.4359
vn 0.7000 -0.6149 -0.3632
vn 0.4381 -0.8647 -0.2455
vn 0.8593 -0.2755 -0.4309
vn 0.5837 0.7683 -0.2627
vn 0.1072 -0.9897 -0.0948
vn 0.7959 -0.6053 -0.0149
vn 0.5133 -0.8579 0.0234
vn 0.9897 0.1137 -0.0871
vn 0.9625 -0.2657 -0.0544
vn 0.6253 0.7724 -0.1111
vn 0.8722 0.4773 -0.1070
vn 0.1488 -0.9873 0.0552
vn 0.8722 0.4773 -0.1069
vn 0.6253 0.7724 -0.1110
vn 0.6079 0.7928 0.0439
vn 0.8411 0.5136 0.1694
vn 0.4837 -0.8222 0.3000
vn 0.1312 -0.9687 0.2106
vn 0.7959 -0.6053 -0.0148
vn 0.9625 -0.2657 -0.0543
vn 0.9192 -0.2151 0.3299
vn 0.7563 -0.5580 0.3415
vn 0.9897 0.1137 -0.0870
vn 0.9496 0.1605 0.2694
vn 0.3515 -0.7619 0.5441
vn 0.0553 -0.9357 0.3485
vn 0.7364 -0.1310 0.6638
vn 0.5877 -0.4786 0.6524
vn 0.7094 0.5735 0.4097
vn 0.7797 0.2376 0.5794
vn 0.3124 -0.3791 0.8710
vn 0.1338 -0.6848 0.7164
vn 0.5059 0.3336 0.7955
vn 0.4413 -0.0256 0.8970
vn 0.4150 0.8680 0.2727
vn 0.4971 0.6477 0.5773
vn -0.0689 -0.8924 0.4459
vn -0.0276 -0.2767 0.9606
vn -0.1338 -0.6033 0.7862
vn 0.1698 0.4335 0.8850
vn 0.0782 0.0830 0.9935
vn 0.2366 0.7251 0.6468
vn -0.2209 -0.8459 0.4855
vn -0.4059 -0.5326 0.7427
vn -0.3741 -0.8045 0.4613
vn -0.2965 0.1772 0.9384
vn -0.3761 -0.1892 0.9071
vn -0.0325 0.7937 0.6075
vn -0.1774 0.5219 0.8343
vn 0.1179 0.9499 0.2896
vn -0.6255 0.2443 0.7410
vn -0.6793 -0.1294 0.7224
vn -0.2692 0.8432 0.4654
vn -0.4827 0.5857 0.6511
vn -0.6391 -0.4847 0.5972
vn -0.0148 0.9776 0.2099
vn -0.5044 -0.7754 0.3799
vn -0.8943 -0.1031 0.4353
vn -0.8023 -0.4654 0.3738
vn -0.6998 0.6152 0.3631
vn -0.8593 0.2755 0.4309
vn -0.1092 0.9904 0.0847
vn -0.4375 0.8660 0.2421
vn -0.5940 -0.7628 0.2554
vn -0.7956 0.6057 0.0144
vn -0.9626 0.2653 0.0548
vn -0.1508 0.9863 -0.0669
vn -0.5118 0.8587 -0.0282
vn -0.8736 -0.4752 0.1052
vn -0.6320 -0.7678 0.1054
vn -0.9897 -0.1137 0.0871
vn -0.6320 -0.7678 0.1053
vn -0.8415 -0.5128 -0.1703
vn -0.6125 -0.7889 -0.0489
vn -0.9897 -0.1137 0.0870
vn -0.9626 0.2653 0.0547
vn -0.9193 0.2147 -0.3297
vn -0.9495 -0.1607 -0.2693
vn -0.7956 0.6057 0.0143
vn -0.5118 0.8587 -0.0283
vn -0.4807 0.8223 -0.3046
vn -0.7554 0.5588 -0.3421
vn -0.1334 0.9659 -0.2219
vn -0.3489 0.7624 -0.5449
vn -0.5855 0.4816 -0.6521
vn -0.7796 -0.2379 -0.5793
vn -0.7095 -0.5730 -0.4101
vn -0.7361 0.1314 -0.6640
vn -0.0595 0.9323 -0.3567
vn -0.5374 -0.8231 -0.1837
vn -0.5058 -0.3336 -0.7955
vn -0.4971 -0.6475 -0.5776
vn -0.3117 0.3858 -0.8683
vn -0.4408 0.0282 -0.8972
vn 0.0596 0.8907 -0.4507
vn -0.1367 0.6882 -0.7125
vn -0.4173 -0.8652 -0.2781
vn 0.2323 -0.7344 -0.6378
vn -0.0358 -0.8019 -0.5964
vn -0.1780 -0.5262 -0.8316
vn 0.1693 -0.4370 -0.8834
vn 0.0784 -0.0795 -0.9937
vn -0.2959 -0.1752 -0.9390
vn -0.3715 0.1976 -0.9072
vn -0.0244 0.2861 -0.9579
vn -0.1239 0.6109 -0.7820
vn -0.3930 0.5423 -0.7426
vn -0.3566 0.8089 -0.4676
vn -0.2057 0.8473 -0.4896
vn 0.2566 -0.9200 -0.2961
vn -0.0235 -0.9807 -0.1939
vn -0.2703 -0.8494 -0.4533
vn -0.4827 -0.5900 -0.6472
vn -0.6253 -0.2442 -0.7412
vn -0.6767 0.1341 -0.7239
vn -0.6297 0.4928 -0.6006
vn -0.8939 0.1047 -0.4359
vn -0.7980 0.4700 -0.3773
vn -0.6297 0.4928 -0.6005
vn -0.2704 -0.8494 -0.4533
vn -0.4355 -0.8700 -0.2310
vn -0.6984 -0.6193 -0.3589
vn -0.4827 -0.5901 -0.6471
vn -0.6253 -0.2442 -0.7411
vn -0.8594 -0.2760 -0.4305
vn -0.5837 0.7683 -0.2627
vn -0.4893 0.7811 -0.3879
vn -0.1158 -0.9907 -0.0711
vn -0.5071 -0.8612 0.0345
vn -0.7923 -0.6100 -0.0115
vn -0.9624 -0.2661 -0.0543
vn -0.9896 0.1144 -0.0872
vn -0.8722 0.4773 -0.1070
vn -0.6253 0.7724 -0.1110
vn -0.1560 -0.9849 0.0756
vn -0.8410 0.5138 0.1693
vn -0.6079 0.7928 0.0440
vn -0.1393 -0.9646 0.2240
vn -0.4760 -0.8254 0.3035
vn -0.7515 -0.5643 0.3418
vn -0.9189 -0.2163 0.3299
vn -0.9495 0.1613 0.2692
vn -0.0687 -0.9332 0.3527
vn -0.3479 -0.7685 0.5370
vn -0.5830 -0.4895 0.6485
vn -0.7357 -0.1342 0.6639
vn -0.7796 0.2383 0.5792
vn -0.7093 0.5737 0.4096
vn -0.5340 0.8264 0.1787
vn -0.1414 -0.6986 0.7014
vn -0.3120 -0.3962 0.8635
vn -0.4407 -0.0318 0.8971
vn -0.5058 0.3338 0.7955
vn -0.4971 0.6478 0.5773
vn -0.4150 0.8680 0.2727
vn 0.0456 -0.8952 0.4434
vn 0.1144 -0.6251 0.7721
vn 0.0218 -0.2976 0.9544
vn -0.0787 0.0760 0.9940
vn -0.1698 0.4335 0.8850
vn -0.2366 0.7251 0.6467
vn -0.2689 0.9114 0.3116
vn 0.1874 -0.8556 0.4824
vn 0.3807 -0.5583 0.7372
vn 0.3679 -0.2081 0.9063
vn 0.2956 0.1723 0.9396
vn 0.1773 0.5220 0.8343
vn 0.0325 0.7937 0.6075
vn -0.1179 0.9499 0.2896
vn 0.6742 -0.1423 0.7247
vn 0.6252 0.2421 0.7420
vn 0.4827 0.5858 0.6510
vn 0.2692 0.8432 0.4654
vn 0.6181 -0.5089 0.5992
vn 0.0148 0.9776 0.2099
vn 0.7882 -0.4847 0.3793
vn 0.8925 -0.1108 0.4372
vn 0.6743 -0.1423 0.7246
vn 0.6253 0.2421 0.7419
vn 0.8595 0.2746 0.4311
vn 0.6998 0.6152 0.3631
vn 0.2693 0.8432 0.4653
vn 0.4375 0.8660 0.2421
vn 0.1092 0.9904 0.0847
vn 0.4681 -0.7946 0.3867
vn 0.5630 -0.7827 0.2651
vn 0.9627 0.2649 0.0549
vn 0.7956 0.6057 0.0144
vn 0.5118 0.8587 -0.0282
vn 0.1508 0.9863 -0.0669
vn 0.8645 -0.4902 0.1110
vn 0.9890 -0.1185 0.0885
vn 0.8348 -0.5253 -0.1645
vn 0.9493 -0.1642 -0.2682
vn 0.9194 0.2146 -0.3297
vn 0.7554 0.5588 -0.3421
vn 0.4807 0.8223 -0.3046
vn 0.1334 0.9659 -0.2219
vn 0.5855 0.4816 -0.6521
vn 0.3489 0.7624 -0.5449
vn 0.7043 -0.5840 -0.4037
vn 0.7795 -0.2409 -0.5782
vn 0.7361 0.1314 -0.6640
vn 0.0595 0.9323 -0.3567
vn 0.5182 -0.8389 -0.1667
vn 0.4925 -0.6576 -0.5701
vn 0.5057 -0.3367 -0.7943
vn 0.4408 0.0281 -0.8972
vn 0.3117 0.3858 -0.8683
vn 0.1367 0.6882 -0.7125
vn -0.0596 0.8907 -0.4507
vn 0.4010 -0.8788 -0.2586
vn 0.5862 0.6136 -0.5291
vn 0.0174 0.4198 -0.9074
vn 0.0475 0.5321 -0.8453
vn 0.0290 0.8562 -0.5158
vn -0.7124 -0.6898 0.1290
vn -0.6655 -0.4323 0.6085
vn -0.3864 0.8571 0.3407
vn -0.7389 0.1711 0.6518
vn 0.0174 0.4199 -0.9074
vn -0.5777 -0.4368 -0.6895
vn -0.0541 0.4186 -0.9066
vn -0.0506 0.5290 -0.8471
vn -0.6654 -0.4323 0.6085
vn -0.0646 0.7891 0.6108
vn -0.1251 0.9137 0.3867
vn -0.2579 0.5447 0.7980
vn -0.5777 -0.4369 -0.6895
vn -0.4463 -0.8331 -0.3267
vn -0.4421 0.2189 -0.8699
vn -0.2443 0.8422 -0.4807
vn -0.5146 -0.8539 -0.0779
vn -0.6898 0.7028 0.1741
vn -0.8732 0.4348 0.2203
vn -0.4463 -0.8331 -0.3266
vn -0.5145 -0.8539 -0.0779
vn -0.8656 0.3042 -0.3979
vn -0.6055 0.7456 -0.2783
vn 0.6462 0.4933 -0.5823
vn 0.2577 0.4451 -0.8576
vn 0.1960 0.7752 -0.6005
vn 0.3827 0.8708 -0.3086
vn 0.5733 0.2369 0.7843
vn 0.8787 0.2453 0.4096
vn 0.5838 0.7177 0.3796
vn 0.4755 0.5751 0.6656
vn -0.9068 0.4165 -0.0654
vn -0.8747 0.2467 0.4171
vn -0.5792 0.7184 0.3854
vn -0.5180 0.8536 0.0551
vn -0.2627 0.4466 -0.8553
vn -0.6525 0.4945 -0.5742
vn -0.3839 0.8725 -0.3022
vn -0.1990 0.7767 -0.5975
vn -0.5667 0.2381 0.7888
vn 0.0049 0.3174 0.9483
vn 0.0028 0.6846 0.7289
vn -0.4694 0.5759 0.6694
vn 0.9065 0.4153 -0.0759
vn 0.5203 0.8527 0.0470
vn 0.0029 0.6846 0.7289
vn 0.0052 0.9038 0.4278
vn 0.0051 0.9039 0.4278
vn 0.0031 0.9912 0.1322
vn 0.0009 0.9762 -0.2168
vn 0.0008 0.9762 -0.2168
vn -0.0003 0.8223 -0.5690
vn -0.0004 0.4986 -0.8668
vn 0.0049 0.3175 0.9483
vn -0.0003 0.4986 -0.8668
vn 0.2834 0.0231 -0.9587
vn -0.0008 0.0751 -0.9972
vn 0.1729 0.8374 0.5186
vn 0.5652 0.1937 0.8019
vn 0.5201 -0.4008 0.7543
vn 0.0785 0.4013 0.9126
vn 0.0051 -0.0160 0.9999
vn 0.5743 -0.0977 0.8128
vn -0.8837 -0.1996 0.4233
vn -0.5679 -0.0945 0.8177
vn -0.2893 0.0242 -0.9569
vn 0.9227 0.3713 -0.1039
vn 0.7021 0.3704 -0.6082
vn 0.5905 -0.5690 -0.5723
vn 0.7644 -0.6365 -0.1027
vn 0.9821 -0.1496 -0.1145
vn 0.7327 -0.0575 -0.6782
vn -0.7410 -0.0557 -0.6692
vn -0.9839 -0.1462 -0.1026
vn 0.8543 0.3823 0.3521
vn 0.7377 -0.5727 0.3575
vn 0.8866 -0.2037 0.4152
vn 0.3289 0.6688 -0.6667
vn 0.3115 0.3981 -0.8629
vn -0.6196 0.6150 -0.4878
vn -0.7946 0.5970 -0.1106
vn -0.7454 0.6040 0.2821
vn -0.2688 0.5660 -0.7794
vn -0.5212 0.5127 0.6822
vn 0.0786 0.4012 0.9126
vn -0.0006 0.6215 -0.7834
vn -0.0005 0.6214 -0.7835
vt 0.508233 0.854858
vt 0.504002 0.876132
vt 0.516053 0.858097
vt 0.024840 0.901673
vt 0.029149 0.880246
vt 0.020704 0.880200
vt 0.522037 0.864081
vt 0.012893 0.883418
vt 0.525276 0.871900
vt 0.006914 0.889420
vt 0.003682 0.897294
vt 0.525276 0.880364
vt 0.522037 0.888183
vt 0.003686 0.905830
vt 0.516053 0.894168
vt 0.006912 0.913715
vt 0.508233 0.897406
vt 0.012858 0.919742
vt 0.499770 0.897406
vt 0.020620 0.922999
vt 0.491951 0.894168
vt 0.029028 0.922999
vt 0.485966 0.888183
vt 0.036811 0.919748
vt 0.042788 0.913743
vt 0.482727 0.880364
vt 0.482727 0.871900
vt 0.046043 0.905901
vt 0.485966 0.864081
vt 0.046077 0.897413
vt 0.491951 0.858097
vt 0.042880 0.889563
vt 0.036936 0.883536
vt 0.499770 0.854858
vt 0.495162 0.996472
vt 0.503626 0.996472
vt 0.499394 0.975197
vt 0.476455 0.924525
vt 0.497629 0.928814
vt 0.497630 0.920340
vt 0.511445 0.993233
vt 0.494401 0.936641
vt 0.517429 0.987248
vt 0.488435 0.942631
vt 0.480637 0.945872
vt 0.520668 0.979429
vt 0.520668 0.970966
vt 0.472192 0.945869
vt 0.517429 0.963147
vt 0.464385 0.942619
vt 0.511445 0.957162
vt 0.458407 0.936616
vt 0.503626 0.953923
vt 0.455169 0.928776
vt 0.495162 0.953923
vt 0.455164 0.920295
vt 0.487343 0.957162
vt 0.458394 0.912464
vt 0.464366 0.906475
vt 0.481359 0.963147
vt 0.478120 0.970966
vt 0.472172 0.903239
vt 0.478120 0.979429
vt 0.480622 0.903249
vt 0.481359 0.987248
vt 0.488428 0.906503
vt 0.494400 0.912505
vt 0.487343 0.993233
vt 0.915396 0.916605
vt 0.894133 0.917283
vt 0.895041 0.935259
vt 0.915926 0.932672
vt 0.873904 0.917948
vt 0.853589 0.918429
vt 0.853955 0.936491
vt 0.874524 0.936653
vt 0.832825 0.919263
vt 0.811552 0.920292
vt 0.812192 0.933519
vt 0.832919 0.935354
vt 0.937039 0.916381
vt 0.937454 0.929839
vt 0.917217 0.948523
vt 0.938435 0.942108
vt 0.875102 0.955741
vt 0.896262 0.953611
vt 0.833113 0.951199
vt 0.854086 0.954808
vt 0.811125 0.946139
vt 0.831096 0.966611
vt 0.852867 0.973832
vt 0.898539 0.972271
vt 0.920218 0.963780
vt 0.875826 0.975699
vt 0.810114 0.956710
vt 0.940476 0.952492
vt 0.903677 0.991060
vt 0.926680 0.977582
vt 0.849755 0.993291
vt 0.876991 0.996730
vt 0.806669 0.964929
vt 0.825554 0.981253
vt 0.944575 0.960402
vt 0.768502 0.496432
vt 0.787754 0.479631
vt 0.783684 0.471678
vt 0.762906 0.481972
vt 0.648147 0.468319
vt 0.664893 0.488346
vt 0.672425 0.474567
vt 0.653291 0.460849
vt 0.688455 0.504076
vt 0.715968 0.510862
vt 0.717107 0.489843
vt 0.693942 0.484984
vt 0.743486 0.507702
vt 0.740506 0.488782
vt 0.676476 0.459309
vt 0.656802 0.450768
vt 0.718409 0.469786
vt 0.697268 0.466166
vt 0.761112 0.466659
vt 0.739540 0.469882
vt 0.782613 0.461505
vt 0.699601 0.447851
vt 0.679205 0.443617
vt 0.740312 0.451517
vt 0.720006 0.450481
vt 0.783086 0.449601
vt 0.760881 0.450874
vt 0.658457 0.439044
vt 0.701397 0.429819
vt 0.681180 0.427922
vt 0.741908 0.433303
vt 0.721569 0.431618
vt 0.783404 0.436705
vt 0.762018 0.435056
vt 0.659674 0.426335
vt 0.682369 0.412235
vt 0.660240 0.413467
vt 0.723280 0.412757
vt 0.702987 0.411754
vt 0.764133 0.419188
vt 0.743396 0.415155
vt 0.784327 0.423974
vt 0.724932 0.393477
vt 0.703758 0.393356
vt 0.765978 0.403581
vt 0.745871 0.396825
vt 0.682222 0.396438
vt 0.786825 0.412157
vt 0.661005 0.401552
vt 0.703363 0.374394
vt 0.680656 0.380856
vt 0.749466 0.378397
vt 0.726676 0.373538
vt 0.789523 0.402238
vt 0.770685 0.388653
vt 0.659382 0.391123
vt 0.755502 0.360202
vt 0.728929 0.352620
vt 0.794825 0.395031
vt 0.778477 0.375281
vt 0.675334 0.366231
vt 0.655533 0.383008
vt 0.700843 0.354803
vt 0.941626 0.871308
vt 0.922855 0.854770
vt 0.917310 0.869298
vt 0.938081 0.879517
vt 0.898482 0.843105
vt 0.871487 0.838731
vt 0.872175 0.860194
vt 0.895087 0.862033
vt 0.844803 0.844827
vt 0.821164 0.858076
vt 0.827593 0.872173
vt 0.849439 0.863493
vt 0.803092 0.876061
vt 0.807539 0.883937
vt 0.830960 0.887475
vt 0.851841 0.882104
vt 0.894172 0.880765
vt 0.915061 0.884887
vt 0.872837 0.880155
vt 0.809248 0.894445
vt 0.936821 0.890137
vt 0.893792 0.899293
vt 0.914554 0.900676
vt 0.853000 0.900396
vt 0.873480 0.899176
vt 0.810701 0.906939
vt 0.832181 0.903233
vt 0.937093 0.902596
vt 0.953614 0.730180
vt 0.957303 0.714906
vt 0.936511 0.705382
vt 0.933332 0.724026
vt 0.912671 0.720688
vt 0.914212 0.700776
vt 0.891221 0.701555
vt 0.891502 0.720349
vt 0.869826 0.722952
vt 0.868664 0.707444
vt 0.847567 0.716569
vt 0.848191 0.727094
vt 0.973900 0.737979
vt 0.976812 0.727479
vt 0.981437 0.719672
vt 0.964286 0.700968
vt 0.941786 0.686372
vt 0.915427 0.679766
vt 0.888404 0.682299
vt 0.864203 0.692980
vt 0.844070 0.708213
vt 0.797761 0.312801
vt 0.778753 0.307463
vt 0.768961 0.328988
vt 0.782609 0.336428
vt 0.788628 0.234310
vt 0.774768 0.240297
vt 0.781560 0.262050
vt 0.800546 0.257956
vt 0.804041 0.285263
vt 0.783003 0.284724
vt 0.755619 0.348173
vt 0.762980 0.353305
vt 0.772180 0.215969
vt 0.764413 0.219863
vt 0.759497 0.242472
vt 0.762792 0.263207
vt 0.763028 0.283743
vt 0.760068 0.304304
vt 0.753858 0.324697
vt 0.745492 0.345751
vt 0.754319 0.221248
vt 0.738196 0.322511
vt 0.733545 0.343777
vt 0.742514 0.221051
vt 0.743741 0.242560
vt 0.744419 0.262921
vt 0.743779 0.282684
vt 0.741716 0.302564
vt 0.729548 0.219799
vt 0.727893 0.241743
vt 0.726355 0.262040
vt 0.724931 0.281591
vt 0.723559 0.301084
vt 0.722323 0.321423
vt 0.720685 0.342507
vt 0.712082 0.240189
vt 0.708340 0.260296
vt 0.706116 0.280034
vt 0.705445 0.300062
vt 0.706296 0.320909
vt 0.707924 0.341515
vt 0.716520 0.219082
vt 0.696455 0.237814
vt 0.690080 0.257991
vt 0.686901 0.278473
vt 0.687042 0.299416
vt 0.690425 0.320686
vt 0.695817 0.342144
vt 0.704769 0.217529
vt 0.694927 0.214709
vt 0.681581 0.233511
vt 0.671610 0.254261
vt 0.666958 0.276740
vt 0.668070 0.299977
vt 0.674881 0.322500
vt 0.685383 0.343831
vt 0.653313 0.247655
vt 0.646014 0.274472
vt 0.648505 0.302701
vt 0.660327 0.328202
vt 0.668625 0.225691
vt 0.677392 0.347455
vt 0.687738 0.209782
vt 0.954118 0.824189
vt 0.949412 0.809344
vt 0.927141 0.815298
vt 0.929271 0.834916
vt 0.902040 0.836941
vt 0.904330 0.815976
vt 0.881833 0.811452
vt 0.875749 0.829924
vt 0.853607 0.815245
vt 0.860597 0.801773
vt 0.840589 0.789072
vt 0.836343 0.796916
vt 0.974296 0.808379
vt 0.970968 0.799963
vt 0.905784 0.796286
vt 0.884978 0.792812
vt 0.864613 0.786582
vt 0.843569 0.778624
vt 0.969868 0.789161
vt 0.948143 0.793769
vt 0.926914 0.796471
vt 0.969963 0.776652
vt 0.948559 0.777952
vt 0.927928 0.778197
vt 0.907543 0.777123
vt 0.887228 0.774582
vt 0.866624 0.770903
vt 0.845559 0.766272
vt 0.889081 0.756657
vt 0.867757 0.754846
vt 0.949566 0.761963
vt 0.929561 0.760194
vt 0.909380 0.758407
vt 0.847277 0.752966
vt 0.970611 0.763437
vt 0.951638 0.745984
vt 0.931225 0.742215
vt 0.910909 0.739717
vt 0.890323 0.738654
vt 0.869824 0.738910
vt 0.847522 0.739412
vt 0.971545 0.750289
vt 0.457447 0.984021
vt 0.459261 0.984342
vt 0.467068 0.976219
vt 0.464864 0.975318
vt 0.065241 0.954205
vt 0.070754 0.950553
vt 0.070859 0.943795
vt 0.066240 0.948214
vt 0.045381 0.958776
vt 0.047323 0.958492
vt 0.040310 0.949595
vt 0.037936 0.950533
vt 0.079037 0.949644
vt 0.080634 0.940819
vt 0.055127 0.957656
vt 0.050371 0.951409
vt 0.060391 0.956337
vt 0.058765 0.950717
vt 0.458987 0.958310
vt 0.467323 0.959596
vt 0.463116 0.950464
vt 0.456563 0.949529
vt 0.436281 0.959172
vt 0.441214 0.960484
vt 0.444959 0.951551
vt 0.439739 0.952313
vt 0.056362 0.933747
vt 0.064493 0.935690
vt 0.061204 0.926683
vt 0.055759 0.924655
vt 0.038373 0.933810
vt 0.046872 0.932741
vt 0.049675 0.924094
vt 0.042977 0.924770
vt 0.069405 0.934678
vt 0.076829 0.927419
vt 0.069829 0.920659
vt 0.066338 0.927705
vt 0.449434 0.958933
vt 0.450480 0.949801
vt 0.436691 0.945189
vt 0.443231 0.942546
vt 0.063409 0.917561
vt 0.450763 0.942404
vt 0.458134 0.944893
vt 0.055814 0.917062
vt 0.048232 0.919261
vt 0.464059 0.949282
vt 0.042003 0.923480
vt 0.036272 0.932536
vt 0.429440 0.951542
vt 0.469302 0.958427
vt 0.467431 0.967530
vt 0.469984 0.967406
vt 0.426136 0.973784
vt 0.434213 0.975093
vt 0.434368 0.968298
vt 0.424929 0.964771
vt 0.426165 0.957881
vt 0.434986 0.963588
vt 0.065759 0.941721
vt 0.070462 0.939112
vt 0.035261 0.941614
vt 0.037994 0.941767
vt 0.444389 0.981316
vt 0.449640 0.982858
vt 0.454748 0.976851
vt 0.446303 0.975825
vt 0.447765 0.967482
vt 0.458302 0.967821
vt 0.079761 0.933924
vt 0.047190 0.942260
vt 0.057668 0.942326
vt 0.439612 0.978985
vt 0.438881 0.972991
vt 0.439652 0.966480
s 1
usemtl Eyes
f 1/1/1 2/2/2 3/3/3
f 4/4/4 5/5/5 6/6/6
f 3/3/3 2/2/2 7/7/7
f 4/4/4 6/6/6 8/8/8
f 7/7/7 2/2/2 9/9/9
f 4/4/4 8/8/8 10/10/10
f 4/4/4 10/10/10 11/11/11
f 9/9/9 2/2/2 12/12/12
f 12/12/12 2/2/2 13/13/13
f 4/4/4 11/11/11 14/14/14
f 13/13/13 2/2/2 15/15/15
f 4/4/4 14/14/14 16/16/16
f 15/15/15 2/2/2 17/17/17
f 4/4/4 16/16/16 18/18/18
f 17/17/17 2/2/2 19/19/19
f 4/4/4 18/18/18 20/20/20
f 19/19/19 2/2/2 21/21/21
f 4/4/4 20/20/20 22/22/22
f 21/21/21 2/2/2 23/23/23
f 4/4/4 22/22/22 24/24/24
f 4/4/4 24/24/24 25/25/25
f 23/23/23 2/2/2 26/26/26
f 26/26/26 2/2/2 27/27/27
f 4/4/4 25/25/25 28/28/28
f 27/27/27 2/2/2 29/29/29
f 4/4/4 28/28/28 30/30/30
f 29/29/29 2/2/2 31/31/31
f 4/4/4 30/30/30 32/32/32
f 4/4/4 32/32/32 33/33/33
f 31/31/31 2/2/2 34/34/34
f 34/34/34 2/2/2 1/1/1
f 4/4/4 33/33/33 5/5/5
f 35/35/35 36/36/36 37/37/37
f 38/38/38 39/39/39 40/40/40
f 36/36/36 41/41/41 37/37/37
f 38/38/38 42/42/42 39/39/39
f 41/41/41 43/43/43 37/37/37
f 38/38/38 44/44/44 42/42/42
f 38/38/38 45/45/45 44/44/44
f 43/43/43 46/46/46 37/37/37
f 46/46/46 47/47/47 37/37/37
f 38/38/38 48/48/48 45/45/45
f 47/47/47 49/49/49 37/37/37
f 38/38/38 50/50/50 48/48/48
f 49/49/49 51/51/51 37/37/37
f 38/38/38 52/52/52 50/50/50
f 51/51/51 53/53/53 37/37/37
f 38/38/38 54/54/54 52/52/52
f 53/53/53 55/55/55 37/37/37
f 38/38/38 56/56/56 54/54/54
f 55/55/55 57/57/57 37/37/37
f 38/38/38 58/58/58 56/56/56
f 38/38/38 59/59/59 58/58/58
f 57/57/57 60/60/60 37/37/37
f 60/60/60 61/61/61 37/37/37
f 38/38/38 62/62/62 59/59/59
f 61/61/61 63/63/63 37/37/37
f 38/38/38 64/64/64 62/62/62
f 63/63/63 65/65/65 37/37/37
f 38/38/38 66/66/66 64/64/64
f 38/38/38 67/67/67 66/66/66
f 65/65/65 68/68/68 37/37/37
f 68/68/68 35/35/35 37/37/37
f 38/38/38 40/40/40 67/67/67
f 69/69/69 70/70/70 71/71/71
f 69/69/69 71/71/71 72/72/72
f 73/73/73 74/74/74 75/75/75
f 73/73/73 75/75/75 76/76/76
f 77/77/77 78/78/78 79/79/79
f 77/77/77 79/79/79 80/80/80
f 81/81/5 69/69/69 72/72/72
f 81/81/5 72/72/72 82/82/81
f 70/70/70 73/73/73 76/76/76
f 70/70/70 76/76/76 71/71/71
f 74/74/74 77/77/77 80/80/80
f 74/74/74 80/80/80 75/75/75
f 82/82/81 72/72/72 83/83/82
f 82/82/81 83/83/82 84/84/83
f 71/71/71 76/76/76 85/85/84
f 71/71/71 85/85/84 86/86/85
f 75/75/75 80/80/80 87/87/86
f 75/75/75 87/87/86 88/88/87
f 72/72/72 71/71/71 86/86/85
f 72/72/72 86/86/85 83/83/82
f 76/76/76 75/75/75 88/88/87
f 76/76/76 88/88/87 85/85/84
f 80/80/80 79/79/79 89/89/88
f 80/80/80 89/89/88 87/87/86
f 88/88/87 87/87/86 90/90/89
f 88/88/87 90/90/89 91/91/90
f 83/83/82 86/86/85 92/92/91
f 83/83/82 92/92/91 93/93/92
f 85/85/84 88/88/87 91/91/90
f 85/85/84 91/91/90 94/94/93
f 87/87/86 89/89/88 95/95/94
f 87/87/86 95/95/94 90/90/89
f 84/84/83 83/83/82 93/93/92
f 84/84/83 93/93/92 96/96/95
f 86/86/85 85/85/84 94/94/93
f 86/86/85 94/94/93 92/92/91
f 93/93/92 92/92/91 97/97/96
f 93/93/92 97/97/96 98/98/97
f 94/94/93 91/91/90 99/99/98
f 94/94/93 99/99/98 100/100/99
f 90/90/89 95/95/94 101/101/100
f 90/90/89 101/101/100 102/102/101
f 96/96/95 93/93/92 98/98/97
f 96/96/95 98/98/97 103/103/102
f 92/92/91 94/94/93 100/100/99
f 92/92/91 100/100/99 97/97/96
f 91/91/90 90/90/89 102/102/101
f 91/91/90 102/102/101 99/99/98
f 104/104/103 105/105/104 106/106/105
f 104/104/103 106/106/105 107/107/106
f 108/108/102 109/109/97 110/110/107
f 108/108/102 110/110/107 111/111/108
f 112/112/109 113/113/110 114/114/111
f 112/112/109 114/114/111 115/115/112
f 116/116/113 104/104/103 107/107/106
f 116/116/113 107/107/106 117/117/114
f 109/109/97 112/112/109 115/115/112
f 109/109/97 115/115/112 110/110/107
f 113/113/110 116/116/113 117/117/114
f 113/113/110 117/117/114 114/114/111
f 111/111/108 110/110/107 118/118/115
f 111/111/108 118/118/115 119/119/116
f 115/115/112 114/114/111 120/120/117
f 115/115/112 120/120/117 121/121/118
f 117/117/114 107/107/106 122/122/119
f 117/117/114 122/122/119 123/123/120
f 110/110/107 115/115/112 121/121/118
f 110/110/107 121/121/118 118/118/115
f 114/114/111 117/117/114 123/123/120
f 114/114/111 123/123/120 120/120/117
f 107/107/106 106/106/105 124/124/15
f 107/107/106 124/124/15 122/122/119
f 118/118/115 121/121/118 125/125/121
f 118/118/115 125/125/121 126/126/122
f 120/120/117 123/123/120 127/127/123
f 120/120/117 127/127/123 128/128/124
f 122/122/119 124/124/15 129/129/125
f 122/122/119 129/129/125 130/130/126
f 119/119/116 118/118/115 126/126/122
f 119/119/116 126/126/122 131/131/127
f 121/121/118 120/120/117 128/128/124
f 121/121/118 128/128/124 125/125/121
f 123/123/120 122/122/119 130/130/126
f 123/123/120 130/130/126 127/127/123
f 126/126/122 125/125/121 132/132/128
f 126/126/122 132/132/128 133/133/129
f 128/128/124 127/127/123 134/134/130
f 128/128/124 134/134/130 135/135/131
f 130/130/126 129/129/125 136/136/19
f 130/130/126 136/136/19 137/137/132
f 131/131/127 126/126/122 133/133/129
f 131/131/127 133/133/129 138/138/133
f 125/125/121 128/128/124 135/135/131
f 125/125/121 135/135/131 132/132/128
f 127/127/123 130/130/126 137/137/132
f 127/127/123 137/137/132 134/134/130
f 138/138/133 133/133/129 139/139/134
f 138/138/133 139/139/134 140/140/135
f 132/132/128 135/135/131 141/141/136
f 132/132/128 141/141/136 142/142/137
f 134/134/130 137/137/132 143/143/138
f 134/134/130 143/143/138 144/144/139
f 133/133/129 132/132/128 142/142/137
f 133/133/129 142/142/137 139/139/134
f 135/135/131 134/134/130 144/144/139
f 135/135/131 144/144/139 141/141/136
f 137/137/132 136/136/19 145/145/140
f 137/137/132 145/145/140 143/143/138
f 142/142/137 141/141/136 146/146/141
f 142/142/137 146/146/141 147/147/142
f 144/144/139 143/143/138 148/148/143
f 144/144/139 148/148/143 149/149/144
f 139/139/134 142/142/137 147/147/142
f 139/139/134 147/147/142 150/150/145
f 141/141/136 144/144/139 149/149/144
f 141/141/136 149/149/144 146/146/141
f 143/143/138 145/145/140 151/151/146
f 143/143/138 151/151/146 148/148/143
f 140/140/135 139/139/134 150/150/145
f 140/140/135 150/150/145 152/152/147
f 150/150/145 147/147/142 153/153/148
f 150/150/145 153/153/148 154/154/149
f 146/146/141 149/149/144 155/155/150
f 146/146/141 155/155/150 156/156/151
f 148/148/143 151/151/146 157/157/152
f 148/148/143 157/157/152 158/158/153
f 152/152/147 150/150/145 154/154/149
f 152/152/147 154/154/149 159/159/154
f 147/147/142 146/146/141 156/156/151
f 147/147/142 156/156/151 153/153/148
f 149/149/144 148/148/143 158/158/153
f 149/149/144 158/158/153 155/155/150
f 156/156/151 155/155/150 160/160/155
f 156/156/151 160/160/155 161/161/156
f 158/158/153 157/157/152 162/162/157
f 158/158/153 162/162/157 163/163/158
f 159/159/154 154/154/149 164/164/159
f 159/159/154 164/164/159 165/165/160
f 153/153/148 156/156/151 161/161/156
f 153/153/148 161/161/156 166/166/161
f 155/155/150 158/158/153 163/163/158
f 155/155/150 163/163/158 160/160/155
f 154/154/149 153/153/148 166/166/161
f 154/154/149 166/166/161 164/164/159
f 167/167/162 168/168/159 169/169/163
f 167/167/162 169/169/163 170/170/164
f 171/171/165 172/172/166 173/173/167
f 171/171/165 173/173/167 174/174/168
f 175/175/169 176/176/170 177/177/171
f 175/175/169 177/177/171 178/178/172
f 168/168/159 171/171/165 174/174/168
f 168/168/159 174/174/168 169/169/163
f 172/172/166 175/175/169 178/178/172
f 172/172/166 178/178/172 173/173/167
f 176/176/170 179/179/157 180/180/173
f 176/176/170 180/180/173 177/177/171
f 178/178/172 177/177/171 181/181/174
f 178/178/172 181/181/174 182/182/175
f 169/169/163 174/174/168 183/183/176
f 169/169/163 183/183/176 184/184/177
f 173/173/167 178/178/172 182/182/175
f 173/173/167 182/182/175 185/185/178
f 177/177/171 180/180/173 186/186/179
f 177/177/171 186/186/179 181/181/174
f 170/170/164 169/169/163 184/184/177
f 170/170/164 184/184/177 187/187/180
f 174/174/168 173/173/167 185/185/178
f 174/174/168 185/185/178 183/183/176
f 184/184/177 183/183/176 188/188/181
f 184/184/177 188/188/181 189/189/182
f 185/185/178 182/182/175 190/190/183
f 185/185/178 190/190/183 191/191/184
f 181/181/174 186/186/179 192/192/185
f 181/181/174 192/192/185 193/193/186
f 187/187/180 184/184/177 189/189/182
f 187/187/180 189/189/182 194/194/187
f 183/183/176 185/185/178 191/191/184
f 183/183/176 191/191/184 188/188/181
f 182/182/175 181/181/174 193/193/186
f 182/182/175 193/193/186 190/190/183
f 193/193/186 192/192/185 78/78/78
f 193/193/186 78/78/78 77/77/77
f 194/194/187 189/189/182 69/69/69
f 194/194/187 69/69/69 81/81/5
f 188/188/181 191/191/184 73/73/73
f 188/188/181 73/73/73 70/70/70
f 190/190/183 193/193/186 77/77/77
f 190/190/183 77/77/77 74/74/74
f 189/189/182 188/188/181 70/70/70
f 189/189/182 70/70/70 69/69/69
f 191/191/184 190/190/183 74/74/74
f 191/191/184 74/74/74 73/73/73
f 195/195/188 196/196/189 197/197/190
f 195/195/188 197/197/190 198/198/191
f 199/199/192 200/200/193 201/201/194
f 199/199/192 201/201/194 202/202/195
f 203/203/196 204/204/197 205/205/198
f 203/203/196 205/205/198 206/206/199
f 207/207/200 208/208/39 196/196/189
f 207/207/200 196/196/189 195/195/188
f 198/198/191 197/197/190 200/200/193
f 198/198/191 200/200/193 199/199/192
f 202/202/195 201/201/194 204/204/197
f 202/202/195 204/204/197 203/203/196
f 208/208/39 209/209/201 210/210/202
f 208/208/39 210/210/202 196/196/189
f 197/197/190 211/211/203 212/212/204
f 197/197/190 212/212/204 200/200/193
f 201/201/194 213/213/205 214/214/206
f 201/201/194 214/214/206 204/204/197
f 196/196/189 210/210/202 211/211/203
f 196/196/189 211/211/203 197/197/190
f 200/200/193 212/212/204 213/213/205
f 200/200/193 213/213/205 201/201/194
f 204/204/197 214/214/206 215/215/41
f 204/204/197 215/215/41 205/205/198
f 216/216/205 217/217/207 218/218/208
f 216/216/205 218/218/208 219/219/209
f 220/220/210 221/221/211 222/222/212
f 220/220/210 222/222/212 223/223/213
f 224/224/214 225/225/215 217/217/207
f 224/224/214 217/217/207 216/216/205
f 219/219/209 218/218/208 226/226/216
f 219/219/209 226/226/216 227/227/217
f 228/228/201 229/229/218 221/221/211
f 228/228/201 221/221/211 220/220/210
f 223/223/213 222/222/212 225/225/215
f 223/223/213 225/225/215 224/224/214
f 221/221/211 230/230/219 231/231/220
f 221/221/211 231/231/220 222/222/212
f 225/225/215 232/232/221 233/233/222
f 225/225/215 233/233/222 217/217/207
f 218/218/208 234/234/223 235/235/224
f 218/218/208 235/235/224 226/226/216
f 229/229/218 236/236/225 230/230/219
f 229/229/218 230/230/219 221/221/211
f 222/222/212 231/231/220 232/232/221
f 222/222/212 232/232/221 225/225/215
f 217/217/207 233/233/222 234/234/223
f 217/217/207 234/234/223 218/218/208
f 234/234/223 237/237/226 238/238/227
f 234/234/223 238/238/227 235/235/224
f 236/236/225 239/239/228 240/240/229
f 236/236/225 240/240/229 230/230/219
f 231/231/220 241/241/230 242/242/231
f 231/231/220 242/242/231 232/232/221
f 233/233/222 243/243/232 237/237/226
f 233/233/222 237/237/226 234/234/223
f 230/230/219 240/240/229 241/241/230
f 230/230/219 241/241/230 231/231/220
f 232/232/221 242/242/231 243/243/232
f 232/232/221 243/243/232 233/233/222
f 239/239/228 244/244/233 245/245/234
f 239/239/228 245/245/234 240/240/229
f 241/241/230 246/246/235 247/247/236
f 241/241/230 247/247/236 242/242/231
f 243/243/232 248/248/237 249/249/238
f 243/243/232 249/249/238 237/237/226
f 240/240/229 245/245/234 246/246/235
f 240/240/229 246/246/235 241/241/230
f 242/242/231 247/247/236 248/248/237
f 242/242/231 248/248/237 243/243/232
f 237/237/226 249/249/238 250/250/239
f 237/237/226 250/250/239 238/238/227
f 245/245/234 251/251/240 252/252/241
f 245/245/234 252/252/241 246/246/235
f 247/247/236 253/253/242 254/254/243
f 247/247/236 254/254/243 248/248/237
f 249/249/238 255/255/244 256/256/245
f 249/249/238 256/256/245 250/250/239
f 244/244/233 257/257/246 251/251/240
f 244/244/233 251/251/240 245/245/234
f 246/246/235 252/252/241 253/253/242
f 246/246/235 253/253/242 247/247/236
f 248/248/237 254/254/243 255/255/244
f 248/248/237 255/255/244 249/249/238
f 251/251/240 258/258/247 259/259/248
f 251/251/240 259/259/248 252/252/241
f 253/253/242 260/260/249 261/261/250
f 253/253/242 261/261/250 254/254/243
f 255/255/244 262/262/251 263/263/252
f 255/255/244 263/263/252 256/256/245
f 257/257/246 264/264/253 258/258/247
f 257/257/246 258/258/247 251/251/240
f 252/252/241 259/259/248 260/260/249
f 252/252/241 260/260/249 253/253/242
f 254/254/243 261/261/250 262/262/251
f 254/254/243 262/262/251 255/255/244
f 264/264/253 265/265/56 266/266/254
f 264/264/253 266/266/254 258/258/247
f 259/259/248 267/267/255 268/268/256
f 259/259/248 268/268/256 260/260/249
f 261/261/250 269/269/257 270/270/258
f 261/261/250 270/270/258 262/262/251
f 258/258/247 266/266/254 267/267/255
f 258/258/247 267/267/255 259/259/248
f 260/260/249 268/268/256 269/269/257
f 260/260/249 269/269/257 261/261/250
f 262/262/251 270/270/258 271/271/259
f 262/262/251 271/271/259 263/263/252
f 267/267/255 272/272/260 273/273/261
f 267/267/255 273/273/261 268/268/256
f 269/269/257 274/274/262 275/275/263
f 269/269/257 275/275/263 270/270/258
f 266/266/254 276/276/264 272/272/260
f 266/266/254 272/272/260 267/267/255
f 268/268/256 273/273/261 274/274/262
f 268/268/256 274/274/262 269/269/257
f 270/270/258 275/275/263 277/277/265
f 270/270/258 277/277/265 271/271/259
f 265/265/56 278/278/58 276/276/264
f 265/265/56 276/276/264 266/266/254
f 279/279/264 280/280/266 281/281/267
f 279/279/264 281/281/267 282/282/268
f 283/283/269 284/284/270 285/285/271
f 283/283/269 285/285/271 286/286/262
f 287/287/272 288/288/273 289/289/274
f 287/287/272 289/289/274 290/290/265
f 291/291/275 292/292/276 280/280/266
f 291/291/275 280/280/266 279/279/264
f 282/282/268 281/281/267 284/284/270
f 282/282/268 284/284/270 283/283/269
f 286/286/262 285/285/271 288/288/273
f 286/286/262 288/288/273 287/287/272
f 284/284/270 293/293/277 294/294/278
f 284/284/270 294/294/278 285/285/271
f 288/288/273 295/295/279 296/296/280
f 288/288/273 296/296/280 289/289/274
f 292/292/276 297/297/62 298/298/281
f 292/292/276 298/298/281 280/280/266
f 281/281/267 299/299/282 293/293/277
f 281/281/267 293/293/277 284/284/270
f 285/285/271 294/294/278 295/295/279
f 285/285/271 295/295/279 288/288/273
f 280/280/266 298/298/281 299/299/282
f 280/280/266 299/299/282 281/281/267
f 297/297/62 300/300/64 301/301/283
f 297/297/62 301/301/283 298/298/281
f 299/299/282 302/302/284 303/303/285
f 299/299/282 303/303/285 293/293/277
f 294/294/278 304/304/286 305/305/287
f 294/294/278 305/305/287 295/295/279
f 298/298/281 301/301/283 302/302/284
f 298/298/281 302/302/284 299/299/282
f 293/293/277 303/303/285 304/304/286
f 293/293/277 304/304/286 294/294/278
f 295/295/279 305/305/287 306/306/288
f 295/295/279 306/306/288 296/296/280
f 304/304/286 307/307/289 308/308/290
f 304/304/286 308/308/290 305/305/287
f 301/301/283 309/309/291 310/310/292
f 301/301/283 310/310/292 302/302/284
f 303/303/285 311/311/293 307/307/289
f 303/303/285 307/307/289 304/304/286
f 305/305/287 308/308/290 312/312/294
f 305/305/287 312/312/294 306/306/288
f 300/300/64 313/313/295 309/309/291
f 300/300/64 309/309/291 301/301/283
f 302/302/284 310/310/292 311/311/293
f 302/302/284 311/311/293 303/303/285
f 309/309/291 314/314/296 315/315/297
f 309/309/291 315/315/297 310/310/292
f 311/311/293 316/316/298 317/317/299
f 311/311/293 317/317/299 307/307/289
f 308/308/290 318/318/300 319/319/301
f 308/308/290 319/319/301 312/312/294
f 313/313/295 320/320/302 314/314/296
f 313/313/295 314/314/296 309/309/291
f 310/310/292 315/315/297 316/316/298
f 310/310/292 316/316/298 311/311/293
f 307/307/289 317/317/299 318/318/300
f 307/307/289 318/318/300 308/308/290
f 318/318/300 203/203/196 206/206/199
f 318/318/300 206/206/199 319/319/301
f 320/320/302 207/207/200 195/195/188
f 320/320/302 195/195/188 314/314/296
f 315/315/297 198/198/191 199/199/192
f 315/315/297 199/199/192 316/316/298
f 317/317/299 202/202/195 203/203/196
f 317/317/299 203/203/196 318/318/300
f 314/314/296 195/195/188 198/198/191
f 314/314/296 198/198/191 315/315/297
f 316/316/298 199/199/192 202/202/195
f 316/316/298 202/202/195 317/317/299
f 321/321/303 322/322/304 323/323/305
f 321/321/303 323/323/305 324/324/306
f 325/325/307 326/326/308 327/327/309
f 325/325/307 327/327/309 328/328/310
f 329/329/311 330/330/312 331/331/313
f 329/329/311 331/331/313 332/332/314
f 326/326/315 333/333/316 334/334/317
f 326/326/315 334/334/317 335/327/318
f 330/330/319 336/335/320 337/336/321
f 330/330/319 337/336/321 338/331/322
f 339/337/323 325/325/307 340/328/324
f 339/337/323 340/328/324 341/338/325
f 336/335/326 339/337/327 342/338/328
f 336/335/326 342/338/328 343/336/329
f 344/339/330 345/340/331 346/341/332
f 344/339/330 346/341/332 347/342/333
f 348/343/334 349/344/335 350/345/336
f 348/343/334 350/345/336 351/346/337
f 352/347/338 353/348/339 354/349/340
f 352/347/338 354/349/340 355/350/341
f 356/351/342 357/352/343 358/353/344
f 356/351/342 358/353/344 359/354/345
f 360/355/346 361/356/347 362/357/348
f 360/355/346 362/357/348 363/358/349
f 364/359/350 344/339/330 347/342/333
f 364/359/350 347/342/333 365/360/351
f 366/361/352 351/346/337 350/345/336
f 366/361/352 350/345/336 367/362/353
f 363/358/349 362/357/348 368/363/354
f 363/358/349 368/363/354 354/349/340
f 369/364/355 365/360/351 347/342/333
f 369/364/355 347/342/333 370/365/356
f 355/350/341 371/366/355 372/367/357
f 355/350/341 372/367/357 358/353/344
f 370/365/356 347/342/333 346/341/332
f 370/365/356 346/341/332 373/368/358
f 358/353/344 372/367/357 374/369/358
f 358/353/344 374/369/358 359/354/345
f 375/370/359 356/351/342 359/354/345
f 375/370/359 359/354/345 374/369/358
f 353/348/339 360/355/346 363/358/349
f 353/348/339 363/358/349 354/349/340
f 376/371/360 348/343/334 351/346/337
f 376/371/360 351/346/337 366/361/352
f 345/340/331 377/372/361 373/368/358
f 345/340/331 373/368/358 346/341/332
f 378/373/362 379/374/363 377/372/361
f 378/373/362 377/372/361 345/340/331
f 380/375/364 381/376/365 382/377/366
f 380/375/364 382/377/366 383/378/367
f 384/379/368 385/380/369 348/343/334
f 384/379/368 348/343/334 376/371/360
f 386/381/370 387/382/371 360/355/346
f 386/381/370 360/355/346 353/348/339
f 388/383/363 389/384/372 356/351/342
f 388/383/363 356/351/342 375/370/359
f 390/385/373 391/386/374 392/387/375
f 390/385/373 392/387/375 393/388/376
f 394/389/377 395/390/378 344/339/330
f 394/389/377 344/339/330 364/359/350
f 387/382/371 396/391/368 361/356/347
f 387/382/371 361/356/347 360/355/346
f 389/384/372 397/392/379 357/352/343
f 389/384/372 357/352/343 356/351/342
f 398/393/380 386/381/370 353/348/339
f 398/393/380 353/348/339 352/347/338
f 381/376/365 399/394/381 400/395/382
f 381/376/365 400/395/382 382/377/366
f 385/380/369 401/396/383 349/344/335
f 385/380/369 349/344/335 348/343/334
f 391/386/374 402/321/384 403/324/385
f 391/386/374 403/324/385 392/387/375
f 395/390/378 378/373/362 345/340/331
f 395/390/378 345/340/331 344/339/330
f 397/392/379 398/393/380 352/347/338
f 397/392/379 352/347/338 357/352/343
f 401/396/383 394/389/377 364/359/350
f 401/396/383 364/359/350 349/344/335
f 399/394/381 390/385/373 393/388/376
f 399/394/381 393/388/376 400/395/382
f 354/349/340 368/363/354 371/366/355
f 354/349/340 371/366/355 355/350/341
f 367/362/353 350/345/336 365/360/351
f 367/362/353 365/360/351 369/364/355
f 349/344/335 364/359/350 365/360/351
f 349/344/335 365/360/351 350/345/336
f 357/352/343 352/347/338 355/350/341
f 357/352/343 355/350/341 358/353/344
f 400/395/382 393/388/376 394/389/377
f 400/395/382 394/389/377 401/396/383
f 404/336/386 405/338/387 398/393/380
f 404/336/386 398/393/380 397/392/379
f 392/387/375 403/324/385 378/373/362
f 392/387/375 378/373/362 395/390/378
f 382/377/366 400/395/382 401/396/383
f 382/377/366 401/396/383 385/380/369
f 405/338/387 406/328/388 386/381/370
f 405/338/387 386/381/370 398/393/380
f 407/331/389 404/336/386 397/392/379
f 407/331/389 397/392/379 389/384/372
f 408/327/390 409/334/391 396/391/368
f 408/327/390 396/391/368 387/382/371
f 393/388/376 392/387/375 395/390/378
f 393/388/376 395/390/378 394/389/377
f 410/332/392 407/331/389 389/384/372
f 410/332/392 389/384/372 388/383/363
f 406/328/388 408/327/390 387/382/371
f 406/328/388 387/382/371 386/381/370
f 383/378/367 382/377/366 385/380/369
f 383/378/367 385/380/369 384/379/368
f 403/324/385 411/323/393 379/374/363
f 403/324/385 379/374/363 378/373/362
