# Blender 5.1.0
# www.blender.org
mtllib fins.mtl
g AnglerFish_Angelic_Fins_0_Mesh
v 0.000034 0.000122 -0.003353
v -0.000070 -0.000014 -0.003212
v -0.000098 -0.000085 -0.003291
v 0.000116 0.000317 -0.002758
v -0.000001 0.000159 -0.002684
v -0.000028 0.000115 -0.002735
v -0.000052 0.000085 -0.002619
v -0.000078 0.000041 -0.002657
v 0.000081 0.000275 -0.002675
v -0.000145 -0.000854 -0.001973
v -0.000127 -0.000902 -0.002038
v -0.000170 -0.000788 -0.002037
v 0.000176 0.000667 -0.002201
v 0.000118 0.000466 -0.002120
v 0.000160 0.000498 -0.002193
v 0.000011 0.000416 -0.001949
v 0.000019 0.000298 -0.001865
v 0.000032 0.000331 -0.001929
v 0.000011 0.000289 -0.001792
v 0.000011 -0.000108 -0.001638
v -0.000031 -0.000056 -0.001712
v -0.000014 0.000023 -0.001745
v -0.000046 -0.000133 -0.001681
v 0.000012 -0.000506 -0.001485
v -0.000090 -0.000459 -0.001547
v -0.000074 -0.000385 -0.001578
v -0.000072 -0.000533 -0.001517
v 0.000032 -0.000904 -0.001345
v -0.000019 -0.000862 -0.001400
v -0.000037 -0.000791 -0.001423
v 0.000002 -0.000927 -0.001383
v 0.000030 -0.001015 -0.001357
v -0.000047 -0.001083 -0.002021
v -0.000127 -0.000905 -0.002103
v -0.000177 -0.000762 -0.001973
v -0.000092 0.002029 0.000767
v -0.000079 0.002147 0.000733
v -0.000038 0.002291 0.000756
v -0.000153 0.001648 0.000818
v -0.000137 0.001833 0.000661
v -0.000116 0.001854 0.000759
v -0.000136 -0.000212 -0.003397
v -0.000089 -0.000104 -0.003408
v -0.000162 -0.000218 -0.003228
v -0.000175 -0.000321 -0.003361
v -0.000202 -0.000328 -0.003146
v -0.000204 -0.000424 -0.003286
v -0.000226 -0.000413 -0.003031
v -0.000223 -0.000515 -0.003161
v -0.000236 -0.000476 -0.002891
v -0.000231 -0.000585 -0.002973
v -0.000239 -0.000506 -0.002757
v -0.000231 -0.000605 -0.002845
v -0.000237 -0.000537 -0.002643
v -0.000230 -0.000614 -0.002722
v -0.000231 -0.000582 -0.002550
v -0.000225 -0.000634 -0.002612
v -0.000219 -0.000648 -0.002480
v -0.000213 -0.000685 -0.002524
v -0.000196 -0.000739 -0.002433
v -0.000183 -0.000790 -0.002467
v -0.000160 -0.000852 -0.002412
v -0.000136 -0.000924 -0.002453
v -0.000110 -0.000984 -0.002406
v -0.000082 -0.001063 -0.002466
v -0.000058 -0.001105 -0.002383
v -0.000030 -0.001193 -0.002477
v 0.000003 -0.001244 -0.002356
v 0.000014 -0.001300 -0.002461
v 0.000064 -0.001397 -0.002315
v 0.000047 -0.001372 -0.002391
v -0.000144 -0.000138 -0.003119
v -0.000192 -0.000246 -0.003029
v -0.000220 -0.000332 -0.002925
v -0.000234 -0.000394 -0.002803
v -0.000239 -0.000436 -0.002686
v -0.000239 -0.000485 -0.002586
v -0.000235 -0.000545 -0.002505
v -0.000224 -0.000617 -0.002444
v -0.000205 -0.000702 -0.002402
v -0.000175 -0.000803 -0.002375
v -0.000129 -0.000927 -0.002352
v -0.000066 -0.001077 -0.002326
v 0.000002 -0.001228 -0.002285
v 0.000075 -0.001404 -0.002237
v 0.000108 0.000253 -0.003214
v -0.000041 0.000057 -0.003094
v -0.000126 -0.000077 -0.003009
v -0.000179 -0.000186 -0.002927
v -0.000211 -0.000274 -0.002836
v -0.000229 -0.000344 -0.002737
v -0.000237 -0.000400 -0.002639
v -0.000239 -0.000457 -0.002549
v -0.000236 -0.000521 -0.002474
v -0.000227 -0.000594 -0.002415
v -0.000210 -0.000676 -0.002374
v -0.000183 -0.000774 -0.002347
v -0.000140 -0.000894 -0.002319
v -0.000077 -0.001042 -0.002277
v -0.000004 -0.001203 -0.002224
v 0.000076 -0.001390 -0.002162
v 0.000133 0.000314 -0.003036
v -0.000029 0.000094 -0.002955
v -0.000114 -0.000038 -0.002896
v -0.000168 -0.000143 -0.002830
v -0.000202 -0.000228 -0.002754
v -0.000222 -0.000298 -0.002670
v -0.000233 -0.000361 -0.002584
v -0.000238 -0.000423 -0.002503
v -0.000237 -0.000489 -0.002432
v -0.000230 -0.000561 -0.002376
v -0.000217 -0.000641 -0.002337
v -0.000193 -0.000734 -0.002312
v -0.000155 -0.000850 -0.002285
v -0.000094 -0.000996 -0.002234
v -0.000018 -0.001162 -0.002171
v 0.000068 -0.001355 -0.002095
v 0.000130 0.000327 -0.002868
v -0.000031 0.000104 -0.002825
v -0.000106 -0.000014 -0.002792
v -0.000157 -0.000109 -0.002743
v -0.000191 -0.000189 -0.002679
v -0.000213 -0.000257 -0.002604
v -0.000227 -0.000322 -0.002526
v -0.000235 -0.000386 -0.002450
v -0.000237 -0.000452 -0.002383
v -0.000233 -0.000522 -0.002329
v -0.000223 -0.000598 -0.002291
v -0.000204 -0.000687 -0.002270
v -0.000172 -0.000797 -0.002247
v -0.000118 -0.000936 -0.002198
v -0.000045 -0.001098 -0.002131
v 0.000048 -0.001296 -0.002040
v -0.000096 0.000009 -0.002711
v -0.000144 -0.000077 -0.002669
v -0.000178 -0.000152 -0.002613
v -0.000202 -0.000218 -0.002542
v -0.000219 -0.000283 -0.002467
v -0.000230 -0.000347 -0.002394
v -0.000234 -0.000412 -0.002327
v -0.000234 -0.000480 -0.002274
v -0.000228 -0.000552 -0.002238
v -0.000214 -0.000639 -0.002220
v -0.000188 -0.000742 -0.002204
v -0.000146 -0.000862 -0.002168
v -0.000086 -0.001004 -0.002110
v 0.000004 -0.001191 -0.002009
v -0.000128 -0.000043 -0.002610
v -0.000164 -0.000116 -0.002554
v -0.000191 -0.000183 -0.002486
v -0.000210 -0.000247 -0.002410
v -0.000223 -0.000311 -0.002337
v -0.000230 -0.000374 -0.002269
v -0.000233 -0.000440 -0.002214
v -0.000231 -0.000509 -0.002179
v -0.000222 -0.000586 -0.002166
v -0.000202 -0.000685 -0.002156
v -0.000172 -0.000787 -0.002139
v -0.000107 -0.000003 -0.002561
v -0.000147 -0.000079 -0.002501
v -0.000178 -0.000150 -0.002433
v -0.000200 -0.000217 -0.002357
v -0.000216 -0.000282 -0.002282
v -0.000226 -0.000347 -0.002214
v -0.000231 -0.000413 -0.002159
v -0.000231 -0.000481 -0.002124
v -0.000226 -0.000548 -0.002110
v -0.000213 -0.000632 -0.002110
v -0.000191 -0.000723 -0.002099
v -0.000164 -0.000806 -0.002082
v -0.000017 0.000139 -0.002587
v -0.000082 0.000041 -0.002516
v -0.000128 -0.000041 -0.002450
v -0.000165 -0.000119 -0.002380
v -0.000192 -0.000193 -0.002305
v -0.000211 -0.000263 -0.002231
v -0.000223 -0.000332 -0.002165
v -0.000229 -0.000401 -0.002113
v -0.000230 -0.000469 -0.002080
v -0.000227 -0.000533 -0.002064
v -0.000219 -0.000595 -0.002061
v -0.000203 -0.000673 -0.002053
v 0.000235 0.000495 -0.002796
v 0.000120 0.000331 -0.002654
v 0.000021 0.000196 -0.002550
v -0.000054 0.000087 -0.002468
v -0.000108 -0.000005 -0.002397
v -0.000152 -0.000092 -0.002325
v -0.000184 -0.000173 -0.002252
v -0.000206 -0.000250 -0.002181
v -0.000221 -0.000324 -0.002119
v -0.000228 -0.000398 -0.002070
v -0.000230 -0.000467 -0.002037
v -0.000226 -0.000530 -0.002018
v -0.000219 -0.000588 -0.002006
v -0.000208 -0.000646 -0.001994
v 0.000296 0.000620 -0.002766
v 0.000177 0.000417 -0.002615
v 0.000064 0.000259 -0.002503
v -0.000024 0.000133 -0.002414
v -0.000089 0.000028 -0.002338
v -0.000140 -0.000069 -0.002266
v -0.000177 -0.000158 -0.002195
v -0.000203 -0.000243 -0.002128
v -0.000219 -0.000323 -0.002070
v -0.000227 -0.000400 -0.002024
v -0.000229 -0.000472 -0.001990
v -0.000225 -0.000537 -0.001966
v -0.000216 -0.000598 -0.001945
v -0.000203 -0.000664 -0.001919
v -0.000177 -0.000762 -0.001889
v -0.000143 -0.000852 -0.001866
v 0.000332 0.000723 -0.002687
v 0.000218 0.000492 -0.002543
v 0.000100 0.000315 -0.002435
v 0.000002 0.000172 -0.002348
v -0.000073 0.000054 -0.002273
v -0.000130 -0.000052 -0.002202
v -0.000172 -0.000149 -0.002135
v -0.000201 -0.000240 -0.002072
v -0.000218 -0.000327 -0.002017
v -0.000226 -0.000408 -0.001972
v -0.000227 -0.000484 -0.001937
v -0.000222 -0.000555 -0.001908
v -0.000210 -0.000625 -0.001877
v -0.000193 -0.000704 -0.001837
v -0.000162 -0.000798 -0.001799
v -0.000122 -0.000897 -0.001769
v 0.000324 0.000772 -0.002544
v 0.000224 0.000532 -0.002435
v 0.000118 0.000348 -0.002348
v 0.000018 0.000197 -0.002270
v -0.000062 0.000069 -0.002200
v -0.000124 -0.000044 -0.002133
v -0.000168 -0.000147 -0.002070
v -0.000198 -0.000244 -0.002011
v -0.000216 -0.000335 -0.001960
v -0.000225 -0.000421 -0.001916
v -0.000225 -0.000503 -0.001879
v -0.000216 -0.000581 -0.001843
v -0.000200 -0.000663 -0.001802
v -0.000176 -0.000752 -0.001752
v -0.000138 -0.000848 -0.001708
v -0.000082 -0.000973 -0.001687
v 0.000253 0.000748 -0.002348
v 0.000203 0.000530 -0.002306
v 0.000115 0.000354 -0.002247
v 0.000022 0.000203 -0.002184
v -0.000057 0.000073 -0.002121
v -0.000119 -0.000044 -0.002060
v -0.000165 -0.000152 -0.002001
v -0.000195 -0.000253 -0.001947
v -0.000213 -0.000348 -0.001898
v -0.000220 -0.000439 -0.001855
v -0.000219 -0.000527 -0.001815
v -0.000207 -0.000614 -0.001774
v -0.000184 -0.000708 -0.001724
v -0.000148 -0.000810 -0.001673
v -0.000095 -0.000926 -0.001639
v -0.000031 -0.001067 -0.001618
v 0.000094 0.000338 -0.002151
v 0.000016 0.000193 -0.002097
v -0.000057 0.000064 -0.002041
v -0.000116 -0.000054 -0.001984
v -0.000160 -0.000164 -0.001930
v -0.000189 -0.000267 -0.001880
v -0.000206 -0.000366 -0.001833
v -0.000212 -0.000461 -0.001790
v -0.000206 -0.000554 -0.001747
v -0.000189 -0.000650 -0.001701
v -0.000159 -0.000752 -0.001647
v -0.000113 -0.000867 -0.001609
v -0.000052 -0.000996 -0.001575
v 0.000021 -0.001165 -0.001562
v 0.000067 0.000309 -0.002064
v 0.000004 0.000170 -0.002011
v -0.000058 0.000045 -0.001959
v -0.000111 -0.000071 -0.001907
v -0.000151 -0.000181 -0.001857
v -0.000178 -0.000286 -0.001810
v -0.000193 -0.000386 -0.001765
v -0.000193 -0.000484 -0.001722
v -0.000185 -0.000583 -0.001677
v -0.000163 -0.000684 -0.001627
v -0.000128 -0.000790 -0.001576
v -0.000078 -0.000912 -0.001549
v -0.000017 -0.001055 -0.001522
v 0.000051 -0.001240 -0.001502
v 0.000051 0.000549 -0.002076
v 0.000070 0.000401 -0.002024
v 0.000039 0.000263 -0.001975
v -0.000009 0.000134 -0.001925
v -0.000058 0.000017 -0.001877
v -0.000102 -0.000094 -0.001830
v -0.000136 -0.000204 -0.001782
v -0.000162 -0.000310 -0.001737
v -0.000170 -0.000409 -0.001694
v -0.000168 -0.000508 -0.001651
v -0.000156 -0.000610 -0.001605
v -0.000130 -0.000715 -0.001557
v -0.000093 -0.000821 -0.001515
v -0.000047 -0.000938 -0.001491
v 0.000006 -0.001079 -0.001464
v 0.000055 -0.001264 -0.001436
v 0.000017 0.000209 -0.001885
v -0.000017 0.000087 -0.001837
v -0.000053 -0.000017 -0.001795
v -0.000086 -0.000119 -0.001753
v -0.000113 -0.000230 -0.001706
v -0.000131 -0.000340 -0.001661
v -0.000145 -0.000434 -0.001621
v -0.000134 -0.000528 -0.001581
v -0.000117 -0.000636 -0.001536
v -0.000091 -0.000746 -0.001491
v -0.000060 -0.000843 -0.001458
v -0.000023 -0.000943 -0.001435
v 0.000019 -0.001068 -0.001407
v 0.000051 -0.001244 -0.001371
v 0.000008 0.000157 -0.001800
v -0.000063 -0.000259 -0.001629
v -0.000058 -0.000662 -0.001468
v 0.000052 -0.001188 -0.001310
v 0.000011 0.000090 -0.001715
v 0.000011 -0.000307 -0.001560
v 0.000017 -0.000707 -0.001416
v 0.000051 -0.001101 -0.001257
v -0.000069 0.002279 0.000644
v 0.000034 0.002521 0.000666
v -0.000078 0.002346 0.000475
v 0.000060 0.002652 0.000459
v -0.000102 0.002277 0.000215
v -0.000004 0.002598 0.000086
v -0.000059 0.002062 -0.000090
v 0.000011 0.002296 -0.000377
v 0.000072 0.001819 -0.000321
v 0.000141 0.001980 -0.000584
v 0.000224 0.001600 -0.000474
v 0.000272 0.001672 -0.000644
v 0.000334 0.001414 -0.000595
v 0.000360 0.001406 -0.000675
v 0.000388 0.001207 -0.000771
v 0.000395 0.001237 -0.000788
v 0.000395 0.001202 -0.000891
v 0.000402 0.001232 -0.000895
v 0.000399 0.001250 -0.000985
v 0.000403 0.001307 -0.000986
v 0.000380 0.001294 -0.001120
v 0.000395 0.001413 -0.001077
v 0.000334 0.001352 -0.001275
v 0.000375 0.001504 -0.001183
v 0.000249 0.001434 -0.001462
v 0.000332 0.001536 -0.001320
v -0.000103 0.001992 0.000713
v -0.000118 0.002054 0.000612
v -0.000134 0.002068 0.000522
v -0.000160 0.002010 0.000322
v -0.000087 0.001848 0.000082
v 0.000041 0.001665 -0.000143
v 0.000185 0.001501 -0.000333
v 0.000301 0.001361 -0.000498
v 0.000369 0.001185 -0.000735
v 0.000359 0.001143 -0.000879
v 0.000366 0.001160 -0.000975
v 0.000312 0.001162 -0.001144
v 0.000234 0.001174 -0.001334
v 0.000145 0.001204 -0.001556
v -0.000172 0.001833 0.000594
v -0.000214 0.001783 0.000420
v -0.000122 0.001659 0.000211
v 0.000006 0.001518 -0.000005
v 0.000132 0.001389 -0.000210
v 0.000249 0.001267 -0.000413
v 0.000308 0.001147 -0.000626
v 0.000306 0.001080 -0.000803
v 0.000272 0.001049 -0.000958
v 0.000212 0.001018 -0.001144
v 0.000135 0.000977 -0.001363
v 0.000051 0.000920 -0.001612
v -0.000207 0.001620 0.000679
v -0.000254 0.001575 0.000515
v -0.000172 0.001487 0.000326
v -0.000072 0.001379 0.000116
v 0.000065 0.001270 -0.000098
v 0.000161 0.001166 -0.000314
v 0.000215 0.001067 -0.000526
v 0.000213 0.000993 -0.000724
v 0.000175 0.000938 -0.000915
v 0.000121 0.000878 -0.001124
v 0.000052 0.000792 -0.001361
v -0.000001 0.000652 -0.001639
v -0.000039 0.001598 0.001147
v -0.000132 0.001516 0.001033
v -0.000091 0.001671 0.000940
v -0.000019 0.001698 0.001072
v -0.000169 0.001452 0.000911
v -0.000205 0.001406 0.000770
v -0.000248 0.001371 0.000612
v -0.000202 0.001325 0.000440
v -0.000129 0.001242 0.000231
v -0.000016 0.001149 0.000010
v 0.000056 0.001058 -0.000216
v 0.000103 0.000971 -0.000434
v 0.000105 0.000898 -0.000644
v 0.000083 0.000833 -0.000853
v 0.000052 0.000761 -0.001074
v 0.000019 0.000659 -0.001324
v -0.000001 0.000474 -0.001647
v -0.000109 0.001469 0.001173
v -0.000147 0.001329 0.001126
v -0.000141 0.001234 0.001016
v -0.000153 0.001180 0.000871
v -0.000174 0.001166 0.000715
v -0.000202 0.001188 0.000579
v -0.000164 0.001108 0.000349
v -0.000101 0.001026 0.000115
v -0.000038 0.000947 -0.000118
v -0.000002 0.000870 -0.000343
v 0.000006 0.000801 -0.000562
v 0.000005 0.000736 -0.000779
v 0.000003 0.000672 -0.000997
v 0.000000 0.000607 -0.001214
v -0.000001 0.000541 -0.001430
v -0.000038 0.001775 0.000969
v -0.000080 0.001828 0.000859
vn 0.8417 -0.5274 0.1159
vn 0.8646 -0.4893 0.1140
vn 0.8909 -0.4342 0.1331
vn 0.8216 -0.5684 0.0434
vn 0.8235 -0.5661 0.0363
vn 0.8327 -0.5522 0.0404
vn 0.8425 -0.5380 0.0262
vn 0.8547 -0.5184 0.0263
vn 0.8197 -0.5717 0.0364
vn 0.9404 0.3398 -0.0101
vn 0.9284 0.3712 -0.0188
vn 0.9506 0.3098 -0.0200
vn 0.8889 -0.0496 0.4553
vn 0.8624 -0.0378 0.5048
vn 0.9190 -0.2017 0.3388
vn 0.8245 0.2894 0.4863
vn 0.9902 0.0615 0.1254
vn 0.9433 0.1100 0.3132
vn 0.9990 0.0146 0.0430
vn 0.6562 -0.3476 -0.6698
vn 0.7368 -0.4049 -0.5414
vn 0.8888 -0.2975 -0.3486
vn 0.6965 -0.3712 -0.6141
vn 0.4233 -0.3046 -0.8533
vn 0.5723 -0.2970 -0.7644
vn 0.5597 -0.3683 -0.7424
vn 0.5750 -0.2232 -0.7871
vn 0.7833 0.0065 -0.6216
vn 0.7901 0.0622 -0.6099
vn 0.6723 -0.1051 -0.7328
vn 0.8208 0.1189 -0.5587
vn 0.9485 0.1020 -0.2998
vn 0.9127 0.4069 -0.0384
vn 0.9285 0.3705 -0.0257
vn 0.9555 0.2946 -0.0124
vn 0.9822 -0.1393 -0.1258
vn 0.9461 -0.1948 -0.2587
vn 0.9219 -0.3107 -0.2314
vn 0.9199 -0.2467 -0.3048
vn 0.9344 -0.2326 -0.2700
vn 0.9514 -0.2029 -0.2315
vn 0.9172 -0.3746 0.1355
vn 0.8751 -0.4629 0.1412
vn 0.9394 -0.3224 0.1163
vn 0.9523 -0.2788 0.1244
vn 0.9732 -0.2095 0.0950
vn 0.9778 -0.1815 0.1048
vn 0.9924 -0.1057 0.0638
vn 0.9938 -0.0819 0.0746
vn 0.9991 -0.0273 0.0331
vn 0.9993 0.0068 0.0380
vn 0.9997 0.0239 0.0098
vn 0.9983 0.0562 0.0129
vn 0.9976 0.0691 -0.0064
vn 0.9956 0.0934 -0.0031
vn 0.9920 0.1246 -0.0190
vn 0.9902 0.1384 -0.0172
vn 0.9808 0.1933 -0.0265
vn 0.9777 0.2083 -0.0274
vn 0.9638 0.2648 -0.0327
vn 0.9551 0.2938 -0.0374
vn 0.9437 0.3276 -0.0451
vn 0.9342 0.3522 -0.0574
vn 0.9275 0.3684 -0.0632
vn 0.9240 0.3752 -0.0732
vn 0.9215 0.3809 -0.0758
vn 0.9232 0.3746 -0.0859
vn 0.9258 0.3684 -0.0848
vn 0.9279 0.3620 -0.0895
vn 0.9308 0.3553 -0.0857
vn 0.9318 0.3517 -0.0902
vn 0.9141 -0.3941 0.0959
vn 0.9554 -0.2850 0.0780
vn 0.9815 -0.1840 0.0534
vn 0.9942 -0.1036 0.0284
vn 0.9991 -0.0415 0.0080
vn 0.9997 0.0225 -0.0073
vn 0.9955 0.0930 -0.0182
vn 0.9854 0.1681 -0.0251
vn 0.9700 0.2411 -0.0306
vn 0.9504 0.3085 -0.0393
vn 0.9311 0.3609 -0.0530
vn 0.9199 0.3865 -0.0666
vn 0.9236 0.3757 -0.0759
vn 0.9287 0.3624 -0.0792
vn 0.8218 -0.5627 0.0891
vn 0.8434 -0.5303 0.0866
vn 0.8922 -0.4452 0.0768
vn 0.9372 -0.3431 0.0620
vn 0.9687 -0.2446 0.0423
vn 0.9868 -0.1601 0.0220
vn 0.9963 -0.0859 0.0042
vn 0.9999 -0.0114 -0.0086
vn 0.9977 0.0656 -0.0174
vn 0.9893 0.1441 -0.0236
vn 0.9749 0.2209 -0.0288
vn 0.9555 0.2927 -0.0358
vn 0.9347 0.3525 -0.0460
vn 0.9198 0.3882 -0.0577
vn 0.9207 0.3843 -0.0676
vn 0.9251 0.3729 -0.0718
vn 0.8156 -0.5742 0.0716
vn 0.8346 -0.5467 0.0680
vn 0.8786 -0.4738 0.0599
vn 0.9227 -0.3826 0.0475
vn 0.9564 -0.2904 0.0318
vn 0.9784 -0.2061 0.0157
vn 0.9919 -0.1267 0.0008
vn 0.9988 -0.0474 -0.0097
vn 0.9993 0.0331 -0.0172
vn 0.9933 0.1138 -0.0222
vn 0.9809 0.1930 -0.0262
vn 0.9626 0.2693 -0.0311
vn 0.9404 0.3379 -0.0390
vn 0.9215 0.3854 -0.0487
vn 0.9172 0.3938 -0.0601
vn 0.9204 0.3854 -0.0653
vn 0.8149 -0.5769 0.0559
vn 0.8328 -0.5512 0.0523
vn 0.8711 -0.4890 0.0449
vn 0.9106 -0.4118 0.0345
vn 0.9437 -0.3300 0.0220
vn 0.9681 -0.2502 0.0091
vn 0.9854 -0.1699 -0.0029
vn 0.9960 -0.0890 -0.0116
vn 0.9998 -0.0072 -0.0175
vn 0.9970 0.0746 -0.0211
vn 0.9875 0.1555 -0.0239
vn 0.9712 0.2369 -0.0269
vn 0.9490 0.3139 -0.0308
vn 0.9264 0.3745 -0.0380
vn 0.9147 0.4006 -0.0524
vn 0.9156 0.3974 -0.0607
vn 0.8641 -0.5023 0.0324
vn 0.8987 -0.4379 0.0239
vn 0.9303 -0.3666 0.0135
vn 0.9564 -0.2921 0.0030
vn 0.9769 -0.2138 -0.0065
vn 0.9909 -0.1337 -0.0136
vn 0.9985 -0.0523 -0.0183
vn 0.9994 0.0290 -0.0207
vn 0.9936 0.1111 -0.0215
vn 0.9799 0.1979 -0.0234
vn 0.9594 0.2810 -0.0246
vn 0.9360 0.3509 -0.0277
vn 0.9169 0.3973 -0.0390
vn 0.9122 0.4062 -0.0540
vn 0.8854 -0.4645 0.0162
vn 0.9159 -0.4013 0.0068
vn 0.9435 -0.3312 -0.0024
vn 0.9666 -0.2562 -0.0103
vn 0.9841 -0.1771 -0.0161
vn 0.9951 -0.0968 -0.0195
vn 0.9997 -0.0158 -0.0206
vn 0.9976 0.0665 -0.0197
vn 0.9881 0.1524 -0.0185
vn 0.9707 0.2393 -0.0203
vn 0.9493 0.3136 -0.0208
vn 0.8709 -0.4914 0.0110
vn 0.9014 -0.4331 0.0019
vn 0.9305 -0.3661 -0.0072
vn 0.9562 -0.2923 -0.0142
vn 0.9768 -0.2133 -0.0190
vn 0.9911 -0.1316 -0.0212
vn 0.9986 -0.0491 -0.0211
vn 0.9993 0.0325 -0.0191
vn 0.9935 0.1129 -0.0151
vn 0.9806 0.1953 -0.0147
vn 0.9625 0.2703 -0.0215
vn 0.9448 0.3268 -0.0227
vn 0.8301 -0.5572 0.0208
vn 0.8567 -0.5157 0.0084
vn 0.8874 -0.4609 -0.0021
vn 0.9185 -0.3953 -0.0110
vn 0.9471 -0.3205 -0.0178
vn 0.9707 -0.2392 -0.0219
vn 0.9878 -0.1537 -0.0231
vn 0.9975 -0.0674 -0.0220
vn 0.9997 0.0155 -0.0190
vn 0.9957 0.0918 -0.0150
vn 0.9868 0.1613 -0.0115
vn 0.9718 0.2355 -0.0148
vn 0.8575 -0.5112 0.0588
vn 0.8305 -0.5555 0.0401
vn 0.8248 -0.5649 0.0235
vn 0.8450 -0.5347 0.0069
vn 0.8751 -0.4840 -0.0052
vn 0.9080 -0.4186 -0.0145
vn 0.9395 -0.3418 -0.0212
vn 0.9662 -0.2565 -0.0248
vn 0.9859 -0.1654 -0.0254
vn 0.9970 -0.0742 -0.0237
vn 0.9998 0.0103 -0.0196
vn 0.9962 0.0857 -0.0162
vn 0.9884 0.1515 -0.0135
vn 0.9762 0.2165 -0.0106
vn 0.8870 -0.4573 0.0638
vn 0.8572 -0.5122 0.0539
vn 0.8275 -0.5608 0.0278
vn 0.8374 -0.5466 0.0062
vn 0.8653 -0.5011 -0.0085
vn 0.8996 -0.4364 -0.0189
vn 0.9336 -0.3574 -0.0256
vn 0.9631 -0.2674 -0.0294
vn 0.9848 -0.1709 -0.0309
vn 0.9967 -0.0763 -0.0289
vn 0.9997 0.0113 -0.0235
vn 0.9956 0.0919 -0.0196
vn 0.9873 0.1580 -0.0184
vn 0.9739 0.2268 -0.0137
vn 0.9525 0.3043 -0.0134
vn 0.9368 0.3493 -0.0211
vn 0.9142 -0.3929 0.0993
vn 0.8899 -0.4489 0.0816
vn 0.8423 -0.5375 0.0415
vn 0.8363 -0.5482 0.0068
vn 0.8594 -0.5111 -0.0130
vn 0.8933 -0.4488 -0.0262
vn 0.9290 -0.3684 -0.0343
vn 0.9606 -0.2747 -0.0421
vn 0.9833 -0.1756 -0.0474
vn 0.9959 -0.0795 -0.0432
vn 0.9993 0.0177 -0.0340
vn 0.9938 0.1070 -0.0299
vn 0.9838 0.1766 -0.0305
vn 0.9675 0.2506 -0.0321
vn 0.9406 0.3376 -0.0356
vn 0.9250 0.3760 -0.0547
vn 0.9355 -0.3079 0.1734
vn 0.9182 -0.3659 0.1519
vn 0.8645 -0.4986 0.0636
vn 0.8435 -0.5371 0.0109
vn 0.8582 -0.5128 -0.0221
vn 0.8888 -0.4564 -0.0426
vn 0.9243 -0.3773 -0.0574
vn 0.9571 -0.2815 -0.0689
vn 0.9810 -0.1803 -0.0713
vn 0.9944 -0.0805 -0.0678
vn 0.9977 0.0235 -0.0639
vn 0.9908 0.1225 -0.0576
vn 0.9785 0.1964 -0.0637
vn 0.9555 0.2852 -0.0760
vn 0.9259 0.3668 -0.0905
vn 0.9136 0.3858 -0.1285
vn 0.9377 -0.1898 0.2910
vn 0.9297 -0.2749 0.2452
vn 0.8877 -0.4474 0.1082
vn 0.8588 -0.5120 0.0177
vn 0.8620 -0.5055 -0.0388
vn 0.8854 -0.4588 -0.0748
vn 0.9176 -0.3847 -0.1000
vn 0.9501 -0.2900 -0.1147
vn 0.9741 -0.1900 -0.1230
vn 0.9881 -0.0866 -0.1270
vn 0.9915 0.0237 -0.1277
vn 0.9843 0.1192 -0.1302
vn 0.9672 0.2083 -0.1456
vn 0.9357 0.3156 -0.1576
vn 0.9113 0.3806 -0.1572
vn 0.9079 0.3833 -0.1698
vn 0.9116 -0.3739 0.1707
vn 0.8802 -0.4743 0.0180
vn 0.8694 -0.4893 -0.0697
vn 0.8823 -0.4541 -0.1238
vn 0.9074 -0.3875 -0.1625
vn 0.9343 -0.3018 -0.1895
vn 0.9576 -0.2034 -0.2039
vn 0.9708 -0.0941 -0.2207
vn 0.9718 0.0026 -0.2357
vn 0.9653 0.1012 -0.2407
vn 0.9435 0.2120 -0.2546
vn 0.9152 0.3317 -0.2288
vn 0.9090 0.3674 -0.1970
vn 0.9242 0.3631 -0.1186
vn 0.9367 -0.2943 0.1895
vn 0.9027 -0.4303 -0.0060
vn 0.8771 -0.4655 -0.1183
vn 0.8775 -0.4411 -0.1883
vn 0.8928 -0.3829 -0.2371
vn 0.9137 -0.3057 -0.2679
vn 0.9322 -0.2035 -0.2992
vn 0.9389 -0.1075 -0.3269
vn 0.9410 -0.0170 -0.3379
vn 0.9324 0.0841 -0.3515
vn 0.9139 0.2134 -0.3453
vn 0.9021 0.3140 -0.2960
vn 0.9256 0.3311 -0.1832
vn 0.9475 0.3044 -0.0974
vn 0.7091 0.2124 0.6723
vn 0.8849 0.0741 0.4599
vn 0.9616 -0.2255 0.1567
vn 0.9200 -0.3870 -0.0620
vn 0.8799 -0.4369 -0.1870
vn 0.8679 -0.4190 -0.2668
vn 0.8683 -0.3724 -0.3276
vn 0.8761 -0.3057 -0.3729
vn 0.8971 -0.2080 -0.3899
vn 0.9078 -0.1040 -0.4064
vn 0.8972 -0.0357 -0.4402
vn 0.8928 0.0666 -0.4454
vn 0.8903 0.2043 -0.4069
vn 0.9001 0.2785 -0.3351
vn 0.9462 0.2633 -0.1881
vn 0.9651 0.2372 -0.1112
vn 0.9818 -0.1821 0.0540
vn 0.9238 -0.3450 -0.1659
vn 0.8560 -0.4099 -0.3151
vn 0.8223 -0.3952 -0.4095
vn 0.7915 -0.3620 -0.4924
vn 0.7783 -0.3308 -0.5338
vn 0.8073 -0.2399 -0.5391
vn 0.8101 -0.1305 -0.5715
vn 0.7990 -0.0980 -0.5933
vn 0.8231 0.0108 -0.5678
vn 0.8583 0.1527 -0.4898
vn 0.8879 0.2173 -0.4055
vn 0.9519 0.1789 -0.2487
vn 0.9746 0.1617 -0.1547
vn 0.9880 -0.1396 -0.0665
vn 0.6371 -0.3427 -0.6904
vn 0.5944 -0.2061 -0.7773
vn 0.9773 0.0883 -0.1928
vn 0.9472 -0.1655 -0.2745
vn 0.5055 -0.3321 -0.7964
vn 0.4702 -0.2554 -0.8448
vn 0.9850 0.0486 -0.1655
vn 0.9399 -0.2846 -0.1889
vn 0.9066 -0.3824 -0.1787
vn 0.9434 -0.3139 -0.1072
vn 0.9202 -0.3776 -0.1034
vn 0.9760 -0.2036 0.0766
vn 0.9623 -0.2649 0.0622
vn 0.9609 0.0244 0.2758
vn 0.9608 0.0158 0.2768
vn 0.8966 0.2307 0.3780
vn 0.8992 0.2291 0.3726
vn 0.8747 0.2795 0.3960
vn 0.8809 0.2932 0.3715
vn 0.9237 0.1373 0.3576
vn 0.9405 0.0904 0.3276
vn 0.9426 -0.2749 0.1897
vn 0.9753 -0.1116 0.1905
vn 0.9360 -0.3521 -0.0053
vn 0.9875 -0.1570 -0.0103
vn 0.9562 -0.2502 -0.1522
vn 0.9871 -0.0849 -0.1354
vn 0.9344 -0.2226 -0.2781
vn 0.9697 -0.0628 -0.2359
vn 0.9041 -0.1977 -0.3788
vn 0.9413 -0.0709 -0.3300
vn 0.8826 -0.2018 -0.4246
vn 0.9159 -0.0845 -0.3925
vn 0.9767 -0.1424 -0.1604
vn 0.9580 -0.1809 -0.2225
vn 0.9658 -0.2145 -0.1456
vn 0.9860 -0.1264 0.1091
vn 0.9386 0.0685 0.3381
vn 0.8897 0.1955 0.4126
vn 0.8700 0.1909 0.4545
vn 0.9070 0.0250 0.4204
vn 0.8960 -0.3662 0.2513
vn 0.8155 -0.5786 0.0129
vn 0.8434 -0.5143 -0.1553
vn 0.8401 -0.4601 -0.2871
vn 0.8653 -0.3515 -0.3574
vn 0.8842 -0.2896 -0.3665
vn 0.9403 -0.2472 -0.2339
vn 0.9846 -0.1260 0.1215
vn 0.9109 0.0316 0.4113
vn 0.8767 0.0779 0.4748
vn 0.8656 0.0281 0.5000
vn 0.8735 -0.1626 0.4590
vn 0.8480 -0.4248 0.3171
vn 0.7641 -0.6374 0.0989
vn 0.7644 -0.6395 -0.0821
vn 0.8227 -0.5382 -0.1830
vn 0.8961 -0.3814 -0.2268
vn 0.9354 -0.2864 -0.2074
vn 0.9439 -0.2038 -0.2598
vn 0.9955 -0.0619 0.0715
vn 0.9217 0.0294 0.3867
vn 0.8799 -0.0037 0.4752
vn 0.8589 -0.1168 0.4987
vn 0.8385 -0.3124 0.4464
vn 0.7899 -0.5217 0.3223
vn 0.7449 -0.6514 0.1447
vn 0.7706 -0.6372 0.0084
vn 0.8552 -0.5138 -0.0680
vn 0.9452 -0.3110 -0.0999
vn 0.9824 -0.1650 -0.0874
vn 0.8572 -0.4003 -0.3238
vn 0.9271 -0.2759 -0.2535
vn 0.8726 -0.3256 -0.3639
vn 0.8334 -0.3969 -0.3845
vn 0.9736 -0.0880 -0.2107
vn 0.9722 0.0108 -0.2339
vn 0.9939 0.1023 -0.0418
vn 0.9640 0.1032 0.2449
vn 0.9266 -0.0122 0.3759
vn 0.8794 -0.1828 0.4396
vn 0.8346 -0.3898 0.3892
vn 0.7819 -0.5482 0.2968
vn 0.7587 -0.6281 0.1727
vn 0.8021 -0.5911 0.0854
vn 0.8881 -0.4587 0.0293
vn 0.9682 -0.2502 0.0040
vn 0.9905 -0.1325 -0.0361
vn 0.9034 -0.3414 -0.2593
vn 0.9790 -0.1240 -0.1620
vn 0.9873 0.0340 -0.1549
vn 0.9710 0.1245 -0.2040
vn 0.9705 0.1947 -0.1422
vn 0.9778 0.1878 0.0934
vn 0.9594 0.0157 0.2816
vn 0.9040 -0.1795 0.3881
vn 0.8490 -0.3854 0.3615
vn 0.8013 -0.5250 0.2870
vn 0.7756 -0.6025 0.1880
vn 0.8160 -0.5650 0.1220
vn 0.8859 -0.4569 0.0804
vn 0.9408 -0.3335 0.0613
vn 0.9734 -0.2195 0.0655
vn 0.8444 -0.3146 -0.4337
vn 0.8715 -0.2807 -0.4021
vt 0.980643 0.154087
vt 0.954541 0.155552
vt 0.954596 0.168097
vt 0.954031 0.088090
vt 0.930627 0.096426
vt 0.929543 0.104718
vt 0.917651 0.097532
vt 0.915630 0.104713
vt 0.943100 0.084896
vt 0.774378 0.101673
vt 0.774661 0.113005
vt 0.786250 0.104094
vt 0.942924 0.010790
vt 0.919403 0.020741
vt 0.928947 0.024438
vt 0.899459 0.008940
vt 0.884385 0.012307
vt 0.891858 0.015330
vt 0.878248 0.006908
vt 0.834777 0.017054
vt 0.843493 0.023729
vt 0.852535 0.021366
vt 0.834582 0.025779
vt 0.790302 0.019704
vt 0.797011 0.031937
vt 0.805537 0.029959
vt 0.788633 0.030541
vt 0.749114 0.016243
vt 0.752885 0.024184
vt 0.760247 0.026749
vt 0.746114 0.021387
vt 0.737166 0.015880
vt 0.754776 0.126139
vt 0.779203 0.119514
vt 0.784377 0.095528
vt 0.103127 0.047855
vt 0.117854 0.047033
vt 0.133997 0.038132
vt 0.057671 0.060079
vt 0.084845 0.068291
vt 0.083184 0.056451
vt 0.952504 0.187483
vt 0.963203 0.178792
vt 0.936811 0.174615
vt 0.939828 0.193995
vt 0.919971 0.177348
vt 0.924591 0.196764
vt 0.902600 0.174775
vt 0.905978 0.194147
vt 0.885038 0.167857
vt 0.883349 0.184059
vt 0.870637 0.158265
vt 0.870111 0.174479
vt 0.857916 0.150054
vt 0.857987 0.163662
vt 0.845733 0.144156
vt 0.845820 0.153967
vt 0.833391 0.141066
vt 0.832435 0.147923
vt 0.820128 0.141617
vt 0.816554 0.148011
vt 0.806613 0.146263
vt 0.801944 0.154934
vt 0.792706 0.154451
vt 0.789065 0.165638
vt 0.778845 0.161167
vt 0.777123 0.176387
vt 0.763089 0.169350
vt 0.765375 0.183153
vt 0.745018 0.177360
vt 0.753210 0.182313
vt 0.934531 0.159070
vt 0.916905 0.160911
vt 0.900352 0.159165
vt 0.884517 0.153616
vt 0.870934 0.146359
vt 0.858168 0.140706
vt 0.845914 0.137027
vt 0.833939 0.135471
vt 0.822029 0.136223
vt 0.809388 0.139525
vt 0.794861 0.145304
vt 0.777659 0.153712
vt 0.759478 0.161597
vt 0.738514 0.170876
vt 0.982713 0.130739
vt 0.951749 0.139660
vt 0.931083 0.144855
vt 0.913790 0.147310
vt 0.898110 0.146850
vt 0.883578 0.143832
vt 0.870439 0.139308
vt 0.857961 0.135191
vt 0.845962 0.132273
vt 0.834283 0.131039
vt 0.822748 0.131837
vt 0.810501 0.134895
vt 0.796030 0.139888
vt 0.777686 0.146499
vt 0.757483 0.154087
vt 0.734207 0.163133
vt 0.974733 0.110955
vt 0.944299 0.125081
vt 0.925733 0.132094
vt 0.910074 0.135570
vt 0.895816 0.136064
vt 0.882437 0.134227
vt 0.869821 0.131285
vt 0.857698 0.128269
vt 0.846017 0.125946
vt 0.834729 0.125015
vt 0.823744 0.125874
vt 0.812240 0.128892
vt 0.798130 0.133546
vt 0.779347 0.139038
vt 0.757769 0.146065
vt 0.732650 0.154370
vt 0.963180 0.096223
vt 0.935271 0.113353
vt 0.919996 0.121224
vt 0.906487 0.125239
vt 0.893741 0.126339
vt 0.881327 0.125102
vt 0.869194 0.122953
vt 0.857405 0.120558
vt 0.846044 0.118556
vt 0.835178 0.117768
vt 0.824844 0.118631
vt 0.814095 0.121763
vt 0.800985 0.126318
vt 0.783012 0.131106
vt 0.761360 0.137326
vt 0.734411 0.144845
vt 0.916271 0.112213
vt 0.904064 0.116151
vt 0.892295 0.117487
vt 0.880472 0.116562
vt 0.868643 0.114640
vt 0.857074 0.112473
vt 0.845960 0.110531
vt 0.835442 0.109659
vt 0.825712 0.110473
vt 0.815524 0.113876
vt 0.803573 0.118424
vt 0.788429 0.122833
vt 0.769577 0.128054
vt 0.742652 0.133715
vt 0.903234 0.108036
vt 0.891614 0.109292
vt 0.879865 0.108695
vt 0.868114 0.106629
vt 0.856600 0.104402
vt 0.845598 0.102310
vt 0.835263 0.101259
vt 0.825897 0.102063
vt 0.817035 0.105340
vt 0.806037 0.110143
vt 0.794042 0.114652
vt 0.903803 0.100326
vt 0.891547 0.101494
vt 0.879366 0.101236
vt 0.867313 0.099467
vt 0.855627 0.097249
vt 0.844513 0.095270
vt 0.834190 0.094264
vt 0.825007 0.094932
vt 0.817101 0.097550
vt 0.808349 0.102340
vt 0.797854 0.106606
vt 0.787813 0.110101
vt 0.921246 0.089778
vt 0.905230 0.092497
vt 0.891766 0.093790
vt 0.878769 0.093963
vt 0.866135 0.092880
vt 0.854091 0.091098
vt 0.842763 0.089589
vt 0.832358 0.089071
vt 0.823233 0.089976
vt 0.815559 0.092140
vt 0.808742 0.095259
vt 0.799900 0.098946
vt 0.977261 0.075375
vt 0.947877 0.077965
vt 0.924886 0.081468
vt 0.906844 0.084233
vt 0.891835 0.085959
vt 0.877794 0.086741
vt 0.864478 0.086459
vt 0.851996 0.085482
vt 0.840410 0.084677
vt 0.829872 0.084708
vt 0.820658 0.085662
vt 0.812832 0.087283
vt 0.805901 0.089296
vt 0.798756 0.091276
vt 0.987388 0.061791
vt 0.954640 0.066803
vt 0.928541 0.071476
vt 0.908040 0.075253
vt 0.891277 0.077891
vt 0.876144 0.079510
vt 0.862165 0.080095
vt 0.849261 0.080025
vt 0.837403 0.079970
vt 0.826661 0.080390
vt 0.817163 0.081296
vt 0.808793 0.082472
vt 0.800922 0.083632
vt 0.791829 0.084276
vt 0.778556 0.085590
vt 0.765955 0.086497
vt 0.990652 0.046147
vt 0.956925 0.053980
vt 0.929767 0.060594
vt 0.907676 0.065859
vt 0.889530 0.069724
vt 0.873552 0.072305
vt 0.859056 0.073796
vt 0.845824 0.074564
vt 0.833717 0.075156
vt 0.822698 0.075884
vt 0.812725 0.076741
vt 0.803441 0.077522
vt 0.793892 0.077805
vt 0.782496 0.076975
vt 0.768777 0.075723
vt 0.753426 0.072682
vt 0.983039 0.030387
vt 0.952162 0.041543
vt 0.926747 0.049986
vt 0.904808 0.056689
vt 0.886200 0.061723
vt 0.869834 0.065270
vt 0.855091 0.067600
vt 0.841685 0.069091
vt 0.829391 0.070190
vt 0.818040 0.071155
vt 0.807435 0.071906
vt 0.796983 0.072205
vt 0.785539 0.071364
vt 0.772563 0.068622
vt 0.758397 0.064618
vt 0.739555 0.059527
vt 0.963258 0.016379
vt 0.941484 0.031006
vt 0.919772 0.040813
vt 0.899393 0.048400
vt 0.881246 0.054238
vt 0.865026 0.058522
vt 0.850344 0.061517
vt 0.836910 0.063588
vt 0.824490 0.065075
vt 0.812821 0.066128
vt 0.801515 0.066658
vt 0.789881 0.066249
vt 0.776822 0.064069
vt 0.762450 0.059976
vt 0.745839 0.054622
vt 0.726141 0.046792
vt 0.910658 0.033882
vt 0.892135 0.041424
vt 0.874977 0.047462
vt 0.859307 0.052127
vt 0.844927 0.055542
vt 0.831634 0.057970
vt 0.819187 0.059665
vt 0.807237 0.060699
vt 0.795291 0.060787
vt 0.782720 0.059497
vt 0.768909 0.055930
vt 0.753519 0.051687
vt 0.736179 0.044328
vt 0.714417 0.035551
vt 0.901026 0.028940
vt 0.883773 0.035629
vt 0.867778 0.041359
vt 0.852929 0.046011
vt 0.839017 0.049555
vt 0.825965 0.052127
vt 0.813618 0.053891
vt 0.801539 0.054586
vt 0.789173 0.054190
vt 0.776178 0.051953
vt 0.762474 0.047631
vt 0.747096 0.043300
vt 0.729389 0.035563
vt 0.707316 0.025460
vt 0.919611 0.007283
vt 0.905479 0.018052
vt 0.889890 0.024784
vt 0.874378 0.030605
vt 0.859895 0.035699
vt 0.846167 0.039993
vt 0.832758 0.043404
vt 0.819930 0.046033
vt 0.807977 0.047435
vt 0.796059 0.047840
vt 0.783558 0.046842
vt 0.770701 0.043975
vt 0.757897 0.039805
vt 0.743844 0.035185
vt 0.727519 0.027464
vt 0.707110 0.017102
vt 0.878513 0.021029
vt 0.864176 0.025994
vt 0.851653 0.030145
vt 0.839564 0.033686
vt 0.826329 0.036772
vt 0.813454 0.039034
vt 0.802386 0.040678
vt 0.791336 0.040260
vt 0.778662 0.038877
vt 0.765910 0.035891
vt 0.754915 0.032293
vt 0.743666 0.027870
vt 0.730167 0.020697
vt 0.711685 0.010585
vt 0.868007 0.017230
vt 0.819980 0.028191
vt 0.774381 0.029519
vt 0.719896 0.005560
vt 0.856744 0.013798
vt 0.812429 0.018391
vt 0.768990 0.020077
vt 0.731097 0.002437
vt 0.136017 0.051686
vt 0.164721 0.038694
vt 0.149303 0.067912
vt 0.187187 0.056512
vt 0.151770 0.098961
vt 0.193523 0.099526
vt 0.143266 0.141474
vt 0.182901 0.160827
vt 0.130690 0.180844
vt 0.162092 0.200511
vt 0.117378 0.213501
vt 0.134798 0.227611
vt 0.105911 0.239623
vt 0.109685 0.248656
vt 0.093665 0.270142
vt 0.097701 0.270728
vt 0.096489 0.285071
vt 0.100320 0.285363
vt 0.103069 0.297062
vt 0.110240 0.298120
vt 0.106957 0.314100
vt 0.121998 0.311803
vt 0.110278 0.333950
vt 0.130174 0.327157
vt 0.114137 0.359562
vt 0.129800 0.344489
vt 0.100727 0.055520
vt 0.111354 0.064599
vt 0.116136 0.074250
vt 0.117498 0.099090
vt 0.112103 0.133779
vt 0.104903 0.170258
vt 0.099094 0.203392
vt 0.094999 0.231615
vt 0.089229 0.266755
vt 0.088016 0.284798
vt 0.091453 0.295832
vt 0.089246 0.316662
vt 0.086639 0.340655
vt 0.086086 0.368787
vt 0.087116 0.076806
vt 0.088142 0.098681
vt 0.085359 0.129063
vt 0.082037 0.162816
vt 0.080366 0.194858
vt 0.080115 0.225815
vt 0.078676 0.255289
vt 0.076696 0.277368
vt 0.073777 0.296037
vt 0.068410 0.318688
vt 0.061095 0.345353
vt 0.053474 0.375776
vt 0.060045 0.077545
vt 0.061526 0.097833
vt 0.060944 0.123907
vt 0.060078 0.154070
vt 0.061171 0.186957
vt 0.062462 0.217525
vt 0.062500 0.245761
vt 0.060286 0.270280
vt 0.055701 0.293375
vt 0.048354 0.318549
vt 0.037447 0.347461
vt 0.023282 0.381573
vt 0.039793 0.023171
vt 0.034145 0.042132
vt 0.055643 0.044071
vt 0.054104 0.026322
vt 0.032130 0.058920
vt 0.032922 0.076907
vt 0.035750 0.096395
vt 0.037877 0.118125
vt 0.038967 0.146644
vt 0.041495 0.178656
vt 0.043067 0.209039
vt 0.043865 0.237469
vt 0.042264 0.263312
vt 0.038439 0.288326
vt 0.031875 0.314631
vt 0.021010 0.344708
vt 0.002792 0.384859
vt 0.023420 0.028292
vt 0.009944 0.039871
vt 0.003675 0.055639
vt 0.003493 0.074042
vt 0.008005 0.092514
vt 0.016711 0.107954
vt 0.018727 0.139013
vt 0.021483 0.170489
vt 0.023923 0.201393
vt 0.025147 0.230114
vt 0.024623 0.256560
vt 0.022856 0.281823
vt 0.019190 0.306828
vt 0.013655 0.332403
vt 0.008040 0.358764
vt 0.066275 0.034812
vt 0.076264 0.045886
s 1
usemtl Fins
f 1/1/1 2/2/2 3/3/3
f 4/4/4 5/5/5 6/6/6
f 5/5/5 7/7/7 8/8/8
f 5/5/5 4/4/4 9/9/9
f 10/10/10 11/11/11 12/12/12
f 13/13/13 14/14/14 15/15/15
f 16/16/16 17/17/17 18/18/18
f 19/19/19 17/17/17 16/16/16
f 20/20/20 21/21/21 22/22/22
f 20/20/20 23/23/23 21/21/21
f 24/24/24 25/25/25 26/26/26
f 24/24/24 27/27/27 25/25/25
f 28/28/28 29/29/29 30/30/30
f 28/28/28 31/31/31 29/29/29
f 28/28/28 32/32/32 31/31/31
f 11/11/11 33/33/33 34/34/34
f 35/35/35 10/10/10 12/12/12
f 36/36/36 37/37/37 38/38/38
f 39/39/39 40/40/40 41/41/41
f 1/1/1 3/3/3 42/42/42
f 1/1/1 42/42/42 43/43/43
f 3/3/3 44/44/44 45/45/45
f 3/3/3 45/45/45 42/42/42
f 44/44/44 46/46/46 47/47/47
f 44/44/44 47/47/47 45/45/45
f 46/46/46 48/48/48 49/49/49
f 46/46/46 49/49/49 47/47/47
f 48/48/48 50/50/50 51/51/51
f 48/48/48 51/51/51 49/49/49
f 50/50/50 52/52/52 53/53/53
f 50/50/50 53/53/53 51/51/51
f 52/52/52 54/54/54 55/55/55
f 52/52/52 55/55/55 53/53/53
f 54/54/54 56/56/56 57/57/57
f 54/54/54 57/57/57 55/55/55
f 56/56/56 58/58/58 59/59/59
f 56/56/56 59/59/59 57/57/57
f 58/58/58 60/60/60 61/61/61
f 58/58/58 61/61/61 59/59/59
f 60/60/60 62/62/62 63/63/63
f 60/60/60 63/63/63 61/61/61
f 62/62/62 64/64/64 65/65/65
f 62/62/62 65/65/65 63/63/63
f 64/64/64 66/66/66 67/67/67
f 64/64/64 67/67/67 65/65/65
f 66/66/66 68/68/68 69/69/69
f 66/66/66 69/69/69 67/67/67
f 68/68/68 70/70/70 71/71/71
f 68/68/68 71/71/71 69/69/69
f 2/2/2 72/72/72 44/44/44
f 2/2/2 44/44/44 3/3/3
f 72/72/72 73/73/73 46/46/46
f 72/72/72 46/46/46 44/44/44
f 73/73/73 74/74/74 48/48/48
f 73/73/73 48/48/48 46/46/46
f 74/74/74 75/75/75 50/50/50
f 74/74/74 50/50/50 48/48/48
f 75/75/75 76/76/76 52/52/52
f 75/75/75 52/52/52 50/50/50
f 76/76/76 77/77/77 54/54/54
f 76/76/76 54/54/54 52/52/52
f 77/77/77 78/78/78 56/56/56
f 77/77/77 56/56/56 54/54/54
f 78/78/78 79/79/79 58/58/58
f 78/78/78 58/58/58 56/56/56
f 79/79/79 80/80/80 60/60/60
f 79/79/79 60/60/60 58/58/58
f 80/80/80 81/81/81 62/62/62
f 80/80/80 62/62/62 60/60/60
f 81/81/81 82/82/82 64/64/64
f 81/81/81 64/64/64 62/62/62
f 82/82/82 83/83/83 66/66/66
f 82/82/82 66/66/66 64/64/64
f 83/83/83 84/84/84 68/68/68
f 83/83/83 68/68/68 66/66/66
f 84/84/84 85/85/85 70/70/70
f 84/84/84 70/70/70 68/68/68
f 86/86/86 87/87/87 2/2/2
f 86/86/86 2/2/2 1/1/1
f 87/87/87 88/88/88 72/72/72
f 87/87/87 72/72/72 2/2/2
f 88/88/88 89/89/89 73/73/73
f 88/88/88 73/73/73 72/72/72
f 89/89/89 90/90/90 74/74/74
f 89/89/89 74/74/74 73/73/73
f 90/90/90 91/91/91 75/75/75
f 90/90/90 75/75/75 74/74/74
f 91/91/91 92/92/92 76/76/76
f 91/91/91 76/76/76 75/75/75
f 92/92/92 93/93/93 77/77/77
f 92/92/92 77/77/77 76/76/76
f 93/93/93 94/94/94 78/78/78
f 93/93/93 78/78/78 77/77/77
f 94/94/94 95/95/95 79/79/79
f 94/94/94 79/79/79 78/78/78
f 95/95/95 96/96/96 80/80/80
f 95/95/95 80/80/80 79/79/79
f 96/96/96 97/97/97 81/81/81
f 96/96/96 81/81/81 80/80/80
f 97/97/97 98/98/98 82/82/82
f 97/97/97 82/82/82 81/81/81
f 98/98/98 99/99/99 83/83/83
f 98/98/98 83/83/83 82/82/82
f 99/99/99 100/100/100 84/84/84
f 99/99/99 84/84/84 83/83/83
f 100/100/100 101/101/101 85/85/85
f 100/100/100 85/85/85 84/84/84
f 102/102/102 103/103/103 87/87/87
f 102/102/102 87/87/87 86/86/86
f 103/103/103 104/104/104 88/88/88
f 103/103/103 88/88/88 87/87/87
f 104/104/104 105/105/105 89/89/89
f 104/104/104 89/89/89 88/88/88
f 105/105/105 106/106/106 90/90/90
f 105/105/105 90/90/90 89/89/89
f 106/106/106 107/107/107 91/91/91
f 106/106/106 91/91/91 90/90/90
f 107/107/107 108/108/108 92/92/92
f 107/107/107 92/92/92 91/91/91
f 108/108/108 109/109/109 93/93/93
f 108/108/108 93/93/93 92/92/92
f 109/109/109 110/110/110 94/94/94
f 109/109/109 94/94/94 93/93/93
f 110/110/110 111/111/111 95/95/95
f 110/110/110 95/95/95 94/94/94
f 111/111/111 112/112/112 96/96/96
f 111/111/111 96/96/96 95/95/95
f 112/112/112 113/113/113 97/97/97
f 112/112/112 97/97/97 96/96/96
f 113/113/113 114/114/114 98/98/98
f 113/113/113 98/98/98 97/97/97
f 114/114/114 115/115/115 99/99/99
f 114/114/114 99/99/99 98/98/98
f 115/115/115 116/116/116 100/100/100
f 115/115/115 100/100/100 99/99/99
f 116/116/116 117/117/117 101/101/101
f 116/116/116 101/101/101 100/100/100
f 118/118/118 119/119/119 103/103/103
f 118/118/118 103/103/103 102/102/102
f 119/119/119 120/120/120 104/104/104
f 119/119/119 104/104/104 103/103/103
f 120/120/120 121/121/121 105/105/105
f 120/120/120 105/105/105 104/104/104
f 121/121/121 122/122/122 106/106/106
f 121/121/121 106/106/106 105/105/105
f 122/122/122 123/123/123 107/107/107
f 122/122/122 107/107/107 106/106/106
f 123/123/123 124/124/124 108/108/108
f 123/123/123 108/108/108 107/107/107
f 124/124/124 125/125/125 109/109/109
f 124/124/124 109/109/109 108/108/108
f 125/125/125 126/126/126 110/110/110
f 125/125/125 110/110/110 109/109/109
f 126/126/126 127/127/127 111/111/111
f 126/126/126 111/111/111 110/110/110
f 127/127/127 128/128/128 112/112/112
f 127/127/127 112/112/112 111/111/111
f 128/128/128 129/129/129 113/113/113
f 128/128/128 113/113/113 112/112/112
f 129/129/129 130/130/130 114/114/114
f 129/129/129 114/114/114 113/113/113
f 130/130/130 131/131/131 115/115/115
f 130/130/130 115/115/115 114/114/114
f 131/131/131 132/132/132 116/116/116
f 131/131/131 116/116/116 115/115/115
f 132/132/132 133/133/133 117/117/117
f 132/132/132 117/117/117 116/116/116
f 4/4/4 6/6/6 119/119/119
f 4/4/4 119/119/119 118/118/118
f 6/6/6 134/134/134 120/120/120
f 6/6/6 120/120/120 119/119/119
f 134/134/134 135/135/135 121/121/121
f 134/134/134 121/121/121 120/120/120
f 135/135/135 136/136/136 122/122/122
f 135/135/135 122/122/122 121/121/121
f 136/136/136 137/137/137 123/123/123
f 136/136/136 123/123/123 122/122/122
f 137/137/137 138/138/138 124/124/124
f 137/137/137 124/124/124 123/123/123
f 138/138/138 139/139/139 125/125/125
f 138/138/138 125/125/125 124/124/124
f 139/139/139 140/140/140 126/126/126
f 139/139/139 126/126/126 125/125/125
f 140/140/140 141/141/141 127/127/127
f 140/140/140 127/127/127 126/126/126
f 141/141/141 142/142/142 128/128/128
f 141/141/141 128/128/128 127/127/127
f 142/142/142 143/143/143 129/129/129
f 142/142/142 129/129/129 128/128/128
f 143/143/143 144/144/144 130/130/130
f 143/143/143 130/130/130 129/129/129
f 144/144/144 145/145/145 131/131/131
f 144/144/144 131/131/131 130/130/130
f 145/145/145 146/146/146 132/132/132
f 145/145/145 132/132/132 131/131/131
f 146/146/146 147/147/147 133/133/133
f 146/146/146 133/133/133 132/132/132
f 5/5/5 8/8/8 134/134/134
f 5/5/5 134/134/134 6/6/6
f 8/8/8 148/148/148 135/135/135
f 8/8/8 135/135/135 134/134/134
f 148/148/148 149/149/149 136/136/136
f 148/148/148 136/136/136 135/135/135
f 149/149/149 150/150/150 137/137/137
f 149/149/149 137/137/137 136/136/136
f 150/150/150 151/151/151 138/138/138
f 150/150/150 138/138/138 137/137/137
f 151/151/151 152/152/152 139/139/139
f 151/151/151 139/139/139 138/138/138
f 152/152/152 153/153/153 140/140/140
f 152/152/152 140/140/140 139/139/139
f 153/153/153 154/154/154 141/141/141
f 153/153/153 141/141/141 140/140/140
f 154/154/154 155/155/155 142/142/142
f 154/154/154 142/142/142 141/141/141
f 155/155/155 156/156/156 143/143/143
f 155/155/155 143/143/143 142/142/142
f 156/156/156 157/157/157 144/144/144
f 156/156/156 144/144/144 143/143/143
f 157/157/157 158/158/158 145/145/145
f 157/157/157 145/145/145 144/144/144
f 158/158/158 34/34/34 146/146/146
f 158/158/158 146/146/146 145/145/145
f 34/34/34 33/33/33 147/147/147
f 34/34/34 147/147/147 146/146/146
f 7/7/7 159/159/159 148/148/148
f 7/7/7 148/148/148 8/8/8
f 159/159/159 160/160/160 149/149/149
f 159/159/159 149/149/149 148/148/148
f 160/160/160 161/161/161 150/150/150
f 160/160/160 150/150/150 149/149/149
f 161/161/161 162/162/162 151/151/151
f 161/161/161 151/151/151 150/150/150
f 162/162/162 163/163/163 152/152/152
f 162/162/162 152/152/152 151/151/151
f 163/163/163 164/164/164 153/153/153
f 163/163/163 153/153/153 152/152/152
f 164/164/164 165/165/165 154/154/154
f 164/164/164 154/154/154 153/153/153
f 165/165/165 166/166/166 155/155/155
f 165/165/165 155/155/155 154/154/154
f 166/166/166 167/167/167 156/156/156
f 166/166/166 156/156/156 155/155/155
f 167/167/167 168/168/168 157/157/157
f 167/167/167 157/157/157 156/156/156
f 168/168/168 169/169/169 158/158/158
f 168/168/168 158/158/158 157/157/157
f 169/169/169 170/170/170 34/34/34
f 169/169/169 34/34/34 158/158/158
f 12/12/12 11/11/11 34/34/34
f 12/12/12 34/34/34 170/170/170
f 9/9/9 171/171/171 7/7/7
f 9/9/9 7/7/7 5/5/5
f 171/171/171 172/172/172 159/159/159
f 171/171/171 159/159/159 7/7/7
f 172/172/172 173/173/173 160/160/160
f 172/172/172 160/160/160 159/159/159
f 173/173/173 174/174/174 161/161/161
f 173/173/173 161/161/161 160/160/160
f 174/174/174 175/175/175 162/162/162
f 174/174/174 162/162/162 161/161/161
f 175/175/175 176/176/176 163/163/163
f 175/175/175 163/163/163 162/162/162
f 176/176/176 177/177/177 164/164/164
f 176/176/176 164/164/164 163/163/163
f 177/177/177 178/178/178 165/165/165
f 177/177/177 165/165/165 164/164/164
f 178/178/178 179/179/179 166/166/166
f 178/178/178 166/166/166 165/165/165
f 179/179/179 180/180/180 167/167/167
f 179/179/179 167/167/167 166/166/166
f 180/180/180 181/181/181 168/168/168
f 180/180/180 168/168/168 167/167/167
f 181/181/181 182/182/182 169/169/169
f 181/181/181 169/169/169 168/168/168
f 182/182/182 12/12/12 170/170/170
f 182/182/182 170/170/170 169/169/169
f 4/4/4 183/183/183 184/184/184
f 4/4/4 184/184/184 9/9/9
f 184/184/184 185/185/185 171/171/171
f 184/184/184 171/171/171 9/9/9
f 185/185/185 186/186/186 172/172/172
f 185/185/185 172/172/172 171/171/171
f 186/186/186 187/187/187 173/173/173
f 186/186/186 173/173/173 172/172/172
f 187/187/187 188/188/188 174/174/174
f 187/187/187 174/174/174 173/173/173
f 188/188/188 189/189/189 175/175/175
f 188/188/188 175/175/175 174/174/174
f 189/189/189 190/190/190 176/176/176
f 189/189/189 176/176/176 175/175/175
f 190/190/190 191/191/191 177/177/177
f 190/190/190 177/177/177 176/176/176
f 191/191/191 192/192/192 178/178/178
f 191/191/191 178/178/178 177/177/177
f 192/192/192 193/193/193 179/179/179
f 192/192/192 179/179/179 178/178/178
f 193/193/193 194/194/194 180/180/180
f 193/193/193 180/180/180 179/179/179
f 194/194/194 195/195/195 181/181/181
f 194/194/194 181/181/181 180/180/180
f 195/195/195 196/196/196 182/182/182
f 195/195/195 182/182/182 181/181/181
f 196/196/196 35/35/35 12/12/12
f 196/196/196 12/12/12 182/182/182
f 197/197/197 198/198/198 184/184/184
f 197/197/197 184/184/184 183/183/183
f 198/198/198 199/199/199 185/185/185
f 198/198/198 185/185/185 184/184/184
f 199/199/199 200/200/200 186/186/186
f 199/199/199 186/186/186 185/185/185
f 200/200/200 201/201/201 187/187/187
f 200/200/200 187/187/187 186/186/186
f 201/201/201 202/202/202 188/188/188
f 201/201/201 188/188/188 187/187/187
f 202/202/202 203/203/203 189/189/189
f 202/202/202 189/189/189 188/188/188
f 203/203/203 204/204/204 190/190/190
f 203/203/203 190/190/190 189/189/189
f 204/204/204 205/205/205 191/191/191
f 204/204/204 191/191/191 190/190/190
f 205/205/205 206/206/206 192/192/192
f 205/205/205 192/192/192 191/191/191
f 206/206/206 207/207/207 193/193/193
f 206/206/206 193/193/193 192/192/192
f 207/207/207 208/208/208 194/194/194
f 207/207/207 194/194/194 193/193/193
f 208/208/208 209/209/209 195/195/195
f 208/208/208 195/195/195 194/194/194
f 209/209/209 210/210/210 196/196/196
f 209/209/209 196/196/196 195/195/195
f 210/210/210 211/211/211 35/35/35
f 210/210/210 35/35/35 196/196/196
f 211/211/211 212/212/212 10/10/10
f 211/211/211 10/10/10 35/35/35
f 213/213/213 214/214/214 198/198/198
f 213/213/213 198/198/198 197/197/197
f 214/214/214 215/215/215 199/199/199
f 214/214/214 199/199/199 198/198/198
f 215/215/215 216/216/216 200/200/200
f 215/215/215 200/200/200 199/199/199
f 216/216/216 217/217/217 201/201/201
f 216/216/216 201/201/201 200/200/200
f 217/217/217 218/218/218 202/202/202
f 217/217/217 202/202/202 201/201/201
f 218/218/218 219/219/219 203/203/203
f 218/218/218 203/203/203 202/202/202
f 219/219/219 220/220/220 204/204/204
f 219/219/219 204/204/204 203/203/203
f 220/220/220 221/221/221 205/205/205
f 220/220/220 205/205/205 204/204/204
f 221/221/221 222/222/222 206/206/206
f 221/221/221 206/206/206 205/205/205
f 222/222/222 223/223/223 207/207/207
f 222/222/222 207/207/207 206/206/206
f 223/223/223 224/224/224 208/208/208
f 223/223/223 208/208/208 207/207/207
f 224/224/224 225/225/225 209/209/209
f 224/224/224 209/209/209 208/208/208
f 225/225/225 226/226/226 210/210/210
f 225/225/225 210/210/210 209/209/209
f 226/226/226 227/227/227 211/211/211
f 226/226/226 211/211/211 210/210/210
f 227/227/227 228/228/228 212/212/212
f 227/227/227 212/212/212 211/211/211
f 229/229/229 230/230/230 214/214/214
f 229/229/229 214/214/214 213/213/213
f 230/230/230 231/231/231 215/215/215
f 230/230/230 215/215/215 214/214/214
f 231/231/231 232/232/232 216/216/216
f 231/231/231 216/216/216 215/215/215
f 232/232/232 233/233/233 217/217/217
f 232/232/232 217/217/217 216/216/216
f 233/233/233 234/234/234 218/218/218
f 233/233/233 218/218/218 217/217/217
f 234/234/234 235/235/235 219/219/219
f 234/234/234 219/219/219 218/218/218
f 235/235/235 236/236/236 220/220/220
f 235/235/235 220/220/220 219/219/219
f 236/236/236 237/237/237 221/221/221
f 236/236/236 221/221/221 220/220/220
f 237/237/237 238/238/238 222/222/222
f 237/237/237 222/222/222 221/221/221
f 238/238/238 239/239/239 223/223/223
f 238/238/238 223/223/223 222/222/222
f 239/239/239 240/240/240 224/224/224
f 239/239/239 224/224/224 223/223/223
f 240/240/240 241/241/241 225/225/225
f 240/240/240 225/225/225 224/224/224
f 241/241/241 242/242/242 226/226/226
f 241/241/241 226/226/226 225/225/225
f 242/242/242 243/243/243 227/227/227
f 242/242/242 227/227/227 226/226/226
f 243/243/243 244/244/244 228/228/228
f 243/243/243 228/228/228 227/227/227
f 245/245/245 246/246/246 230/230/230
f 245/245/245 230/230/230 229/229/229
f 246/246/246 247/247/247 231/231/231
f 246/246/246 231/231/231 230/230/230
f 247/247/247 248/248/248 232/232/232
f 247/247/247 232/232/232 231/231/231
f 248/248/248 249/249/249 233/233/233
f 248/248/248 233/233/233 232/232/232
f 249/249/249 250/250/250 234/234/234
f 249/249/249 234/234/234 233/233/233
f 250/250/250 251/251/251 235/235/235
f 250/250/250 235/235/235 234/234/234
f 251/251/251 252/252/252 236/236/236
f 251/251/251 236/236/236 235/235/235
f 252/252/252 253/253/253 237/237/237
f 252/252/252 237/237/237 236/236/236
f 253/253/253 254/254/254 238/238/238
f 253/253/253 238/238/238 237/237/237
f 254/254/254 255/255/255 239/239/239
f 254/254/254 239/239/239 238/238/238
f 255/255/255 256/256/256 240/240/240
f 255/255/255 240/240/240 239/239/239
f 256/256/256 257/257/257 241/241/241
f 256/256/256 241/241/241 240/240/240
f 257/257/257 258/258/258 242/242/242
f 257/257/257 242/242/242 241/241/241
f 258/258/258 259/259/259 243/243/243
f 258/258/258 243/243/243 242/242/242
f 259/259/259 260/260/260 244/244/244
f 259/259/259 244/244/244 243/243/243
f 13/13/13 15/15/15 246/246/246
f 13/13/13 246/246/246 245/245/245
f 15/15/15 261/261/261 247/247/247
f 15/15/15 247/247/247 246/246/246
f 261/261/261 262/262/262 248/248/248
f 261/261/261 248/248/248 247/247/247
f 262/262/262 263/263/263 249/249/249
f 262/262/262 249/249/249 248/248/248
f 263/263/263 264/264/264 250/250/250
f 263/263/263 250/250/250 249/249/249
f 264/264/264 265/265/265 251/251/251
f 264/264/264 251/251/251 250/250/250
f 265/265/265 266/266/266 252/252/252
f 265/265/265 252/252/252 251/251/251
f 266/266/266 267/267/267 253/253/253
f 266/266/266 253/253/253 252/252/252
f 267/267/267 268/268/268 254/254/254
f 267/267/267 254/254/254 253/253/253
f 268/268/268 269/269/269 255/255/255
f 268/268/268 255/255/255 254/254/254
f 269/269/269 270/270/270 256/256/256
f 269/269/269 256/256/256 255/255/255
f 270/270/270 271/271/271 257/257/257
f 270/270/270 257/257/257 256/256/256
f 271/271/271 272/272/272 258/258/258
f 271/271/271 258/258/258 257/257/257
f 272/272/272 273/273/273 259/259/259
f 272/272/272 259/259/259 258/258/258
f 273/273/273 274/274/274 260/260/260
f 273/273/273 260/260/260 259/259/259
f 14/14/14 275/275/275 261/261/261
f 14/14/14 261/261/261 15/15/15
f 275/275/275 276/276/276 262/262/262
f 275/275/275 262/262/262 261/261/261
f 276/276/276 277/277/277 263/263/263
f 276/276/276 263/263/263 262/262/262
f 277/277/277 278/278/278 264/264/264
f 277/277/277 264/264/264 263/263/263
f 278/278/278 279/279/279 265/265/265
f 278/278/278 265/265/265 264/264/264
f 279/279/279 280/280/280 266/266/266
f 279/279/279 266/266/266 265/265/265
f 280/280/280 281/281/281 267/267/267
f 280/280/280 267/267/267 266/266/266
f 281/281/281 282/282/282 268/268/268
f 281/281/281 268/268/268 267/267/267
f 282/282/282 283/283/283 269/269/269
f 282/282/282 269/269/269 268/268/268
f 283/283/283 284/284/284 270/270/270
f 283/283/283 270/270/270 269/269/269
f 284/284/284 285/285/285 271/271/271
f 284/284/284 271/271/271 270/270/270
f 285/285/285 286/286/286 272/272/272
f 285/285/285 272/272/272 271/271/271
f 286/286/286 287/287/287 273/273/273
f 286/286/286 273/273/273 272/272/272
f 287/287/287 288/288/288 274/274/274
f 287/287/287 274/274/274 273/273/273
f 289/289/289 290/290/290 14/14/14
f 289/289/289 14/14/14 13/13/13
f 290/290/290 291/291/291 275/275/275
f 290/290/290 275/275/275 14/14/14
f 291/291/291 292/292/292 276/276/276
f 291/291/291 276/276/276 275/275/275
f 292/292/292 293/293/293 277/277/277
f 292/292/292 277/277/277 276/276/276
f 293/293/293 294/294/294 278/278/278
f 293/293/293 278/278/278 277/277/277
f 294/294/294 295/295/295 279/279/279
f 294/294/294 279/279/279 278/278/278
f 295/295/295 296/296/296 280/280/280
f 295/295/295 280/280/280 279/279/279
f 296/296/296 297/297/297 281/281/281
f 296/296/296 281/281/281 280/280/280
f 297/297/297 298/298/298 282/282/282
f 297/297/297 282/282/282 281/281/281
f 298/298/298 299/299/299 283/283/283
f 298/298/298 283/283/283 282/282/282
f 299/299/299 300/300/300 284/284/284
f 299/299/299 284/284/284 283/283/283
f 300/300/300 301/301/301 285/285/285
f 300/300/300 285/285/285 284/284/284
f 301/301/301 302/302/302 286/286/286
f 301/301/301 286/286/286 285/285/285
f 302/302/302 303/303/303 287/287/287
f 302/302/302 287/287/287 286/286/286
f 303/303/303 304/304/304 288/288/288
f 303/303/303 288/288/288 287/287/287
f 16/16/16 18/18/18 290/290/290
f 16/16/16 290/290/290 289/289/289
f 18/18/18 305/305/305 291/291/291
f 18/18/18 291/291/291 290/290/290
f 305/305/305 306/306/306 292/292/292
f 305/305/305 292/292/292 291/291/291
f 306/306/306 307/307/307 293/293/293
f 306/306/306 293/293/293 292/292/292
f 307/307/307 308/308/308 294/294/294
f 307/307/307 294/294/294 293/293/293
f 308/308/308 309/309/309 295/295/295
f 308/308/308 295/295/295 294/294/294
f 309/309/309 310/310/310 296/296/296
f 309/309/309 296/296/296 295/295/295
f 310/310/310 311/311/311 297/297/297
f 310/310/310 297/297/297 296/296/296
f 311/311/311 312/312/312 298/298/298
f 311/311/311 298/298/298 297/297/297
f 312/312/312 313/313/313 299/299/299
f 312/312/312 299/299/299 298/298/298
f 313/313/313 314/314/314 300/300/300
f 313/313/313 300/300/300 299/299/299
f 314/314/314 315/315/315 301/301/301
f 314/314/314 301/301/301 300/300/300
f 315/315/315 316/316/316 302/302/302
f 315/315/315 302/302/302 301/301/301
f 316/316/316 317/317/317 303/303/303
f 316/316/316 303/303/303 302/302/302
f 317/317/317 318/318/318 304/304/304
f 317/317/317 304/304/304 303/303/303
f 17/17/17 319/319/319 305/305/305
f 17/17/17 305/305/305 18/18/18
f 319/319/319 22/22/22 306/306/306
f 319/319/319 306/306/306 305/305/305
f 22/22/22 21/21/21 307/307/307
f 22/22/22 307/307/307 306/306/306
f 21/21/21 23/23/23 308/308/308
f 21/21/21 308/308/308 307/307/307
f 23/23/23 320/320/320 309/309/309
f 23/23/23 309/309/309 308/308/308
f 320/320/320 26/26/26 310/310/310
f 320/320/320 310/310/310 309/309/309
f 26/26/26 25/25/25 311/311/311
f 26/26/26 311/311/311 310/310/310
f 25/25/25 27/27/27 312/312/312
f 25/25/25 312/312/312 311/311/311
f 27/27/27 321/321/321 313/313/313
f 27/27/27 313/313/313 312/312/312
f 321/321/321 30/30/30 314/314/314
f 321/321/321 314/314/314 313/313/313
f 30/30/30 29/29/29 315/315/315
f 30/30/30 315/315/315 314/314/314
f 29/29/29 31/31/31 316/316/316
f 29/29/29 316/316/316 315/315/315
f 31/31/31 32/32/32 317/317/317
f 31/31/31 317/317/317 316/316/316
f 32/32/32 322/322/322 318/318/318
f 32/32/32 318/318/318 317/317/317
f 19/19/19 323/323/323 319/319/319
f 19/19/19 319/319/319 17/17/17
f 323/323/323 20/20/20 22/22/22
f 323/323/323 22/22/22 319/319/319
f 20/20/20 324/324/324 320/320/320
f 20/20/20 320/320/320 23/23/23
f 324/324/324 24/24/24 26/26/26
f 324/324/324 26/26/26 320/320/320
f 24/24/24 325/325/325 321/321/321
f 24/24/24 321/321/321 27/27/27
f 325/325/325 28/28/28 30/30/30
f 325/325/325 30/30/30 321/321/321
f 28/28/28 326/326/326 322/322/322
f 28/28/28 322/322/322 32/32/32
f 327/327/327 328/328/328 38/38/38
f 327/327/327 38/38/38 37/37/37
f 327/327/327 329/329/329 330/330/330
f 327/327/327 330/330/330 328/328/328
f 329/329/329 331/331/331 332/332/332
f 329/329/329 332/332/332 330/330/330
f 331/331/331 333/333/333 334/334/334
f 331/331/331 334/334/334 332/332/332
f 333/333/333 335/335/335 336/336/336
f 333/333/333 336/336/336 334/334/334
f 335/335/335 337/337/337 338/338/338
f 335/335/335 338/338/338 336/336/336
f 337/337/337 339/339/339 340/340/340
f 337/337/337 340/340/340 338/338/338
f 339/339/339 341/341/341 342/342/342
f 339/339/339 342/342/342 340/340/340
f 341/341/341 343/343/343 344/344/344
f 341/341/341 344/344/344 342/342/342
f 343/343/343 345/345/345 346/346/346
f 343/343/343 346/346/346 344/344/344
f 345/345/345 347/347/347 348/348/348
f 345/345/345 348/348/348 346/346/346
f 347/347/347 349/349/349 350/350/350
f 347/347/347 350/350/350 348/348/348
f 349/349/349 351/351/351 352/352/352
f 349/349/349 352/352/352 350/350/350
f 327/327/327 37/37/37 353/353/353
f 327/327/327 353/353/353 354/354/354
f 354/354/354 355/355/355 329/329/329
f 354/354/354 329/329/329 327/327/327
f 355/355/355 356/356/356 331/331/331
f 355/355/355 331/331/331 329/329/329
f 356/356/356 357/357/357 333/333/333
f 356/356/356 333/333/333 331/331/331
f 357/357/357 358/358/358 335/335/335
f 357/357/357 335/335/335 333/333/333
f 358/358/358 359/359/359 337/337/337
f 358/358/358 337/337/337 335/335/335
f 359/359/359 360/360/360 339/339/339
f 359/359/359 339/339/339 337/337/337
f 360/360/360 361/361/361 341/341/341
f 360/360/360 341/341/341 339/339/339
f 361/361/361 362/362/362 343/343/343
f 361/361/361 343/343/343 341/341/341
f 362/362/362 363/363/363 345/345/345
f 362/362/362 345/345/345 343/343/343
f 363/363/363 364/364/364 347/347/347
f 363/363/363 347/347/347 345/345/345
f 364/364/364 365/365/365 349/349/349
f 364/364/364 349/349/349 347/347/347
f 365/365/365 366/366/366 351/351/351
f 365/365/365 351/351/351 349/349/349
f 41/41/41 40/40/40 354/354/354
f 41/41/41 354/354/354 353/353/353
f 40/40/40 367/367/367 355/355/355
f 40/40/40 355/355/355 354/354/354
f 367/367/367 368/368/368 356/356/356
f 367/367/367 356/356/356 355/355/355
f 368/368/368 369/369/369 357/357/357
f 368/368/368 357/357/357 356/356/356
f 369/369/369 370/370/370 358/358/358
f 369/369/369 358/358/358 357/357/357
f 370/370/370 371/371/371 359/359/359
f 370/370/370 359/359/359 358/358/358
f 371/371/371 372/372/372 360/360/360
f 371/371/371 360/360/360 359/359/359
f 372/372/372 373/373/373 361/361/361
f 372/372/372 361/361/361 360/360/360
f 373/373/373 374/374/374 362/362/362
f 373/373/373 362/362/362 361/361/361
f 374/374/374 375/375/375 363/363/363
f 374/374/374 363/363/363 362/362/362
f 375/375/375 376/376/376 364/364/364
f 375/375/375 364/364/364 363/363/363
f 376/376/376 377/377/377 365/365/365
f 376/376/376 365/365/365 364/364/364
f 377/377/377 378/378/378 366/366/366
f 377/377/377 366/366/366 365/365/365
f 39/39/39 379/379/379 367/367/367
f 39/39/39 367/367/367 40/40/40
f 379/379/379 380/380/380 368/368/368
f 379/379/379 368/368/368 367/367/367
f 380/380/380 381/381/381 369/369/369
f 380/380/380 369/369/369 368/368/368
f 381/381/381 382/382/382 370/370/370
f 381/381/381 370/370/370 369/369/369
f 382/382/382 383/383/383 371/371/371
f 382/382/382 371/371/371 370/370/370
f 383/383/383 384/384/384 372/372/372
f 383/383/383 372/372/372 371/371/371
f 384/384/384 385/385/385 373/373/373
f 384/384/384 373/373/373 372/372/372
f 385/385/385 386/386/386 374/374/374
f 385/385/385 374/374/374 373/373/373
f 386/386/386 387/387/387 375/375/375
f 386/386/386 375/375/375 374/374/374
f 387/387/387 388/388/388 376/376/376
f 387/387/387 376/376/376 375/375/375
f 388/388/388 389/389/389 377/377/377
f 388/388/388 377/377/377 376/376/376
f 389/389/389 390/390/390 378/378/378
f 389/389/389 378/378/378 377/377/377
f 391/391/391 392/392/392 393/393/393
f 391/391/391 393/393/393 394/394/394
f 392/392/392 395/395/395 39/39/39
f 392/392/392 39/39/39 393/393/393
f 395/395/395 396/396/396 379/379/379
f 395/395/395 379/379/379 39/39/39
f 396/396/396 397/397/397 380/380/380
f 396/396/396 380/380/380 379/379/379
f 397/397/397 398/398/398 381/381/381
f 397/397/397 381/381/381 380/380/380
f 398/398/398 399/399/399 382/382/382
f 398/398/398 382/382/382 381/381/381
f 399/399/399 400/400/400 383/383/383
f 399/399/399 383/383/383 382/382/382
f 400/400/400 401/401/401 384/384/384
f 400/400/400 384/384/384 383/383/383
f 401/401/401 402/402/402 385/385/385
f 401/401/401 385/385/385 384/384/384
f 402/402/402 403/403/403 386/386/386
f 402/402/402 386/386/386 385/385/385
f 403/403/403 404/404/404 387/387/387
f 403/403/403 387/387/387 386/386/386
f 404/404/404 405/405/405 388/388/388
f 404/404/404 388/388/388 387/387/387
f 405/405/405 406/406/406 389/389/389
f 405/405/405 389/389/389 388/388/388
f 406/406/406 407/407/407 390/390/390
f 406/406/406 390/390/390 389/389/389
f 408/408/408 409/409/409 392/392/392
f 408/408/408 392/392/392 391/391/391
f 409/409/409 410/410/410 395/395/395
f 409/409/409 395/395/395 392/392/392
f 410/410/410 411/411/411 396/396/396
f 410/410/410 396/396/396 395/395/395
f 411/411/411 412/412/412 397/397/397
f 411/411/411 397/397/397 396/396/396
f 412/412/412 413/413/413 398/398/398
f 412/412/412 398/398/398 397/397/397
f 413/413/413 414/414/414 399/399/399
f 413/413/413 399/399/399 398/398/398
f 414/414/414 415/415/415 400/400/400
f 414/414/414 400/400/400 399/399/399
f 415/415/415 416/416/416 401/401/401
f 415/415/415 401/401/401 400/400/400
f 416/416/416 417/417/417 402/402/402
f 416/416/416 402/402/402 401/401/401
f 417/417/417 418/418/418 403/403/403
f 417/417/417 403/403/403 402/402/402
f 418/418/418 419/419/419 404/404/404
f 418/418/418 404/404/404 403/403/403
f 419/419/419 420/420/420 405/405/405
f 419/419/419 405/405/405 404/404/404
f 420/420/420 421/421/421 406/406/406
f 420/420/420 406/406/406 405/405/405
f 421/421/421 422/422/422 407/407/407
f 421/421/421 407/407/407 406/406/406
f 423/423/423 394/394/394 393/393/393
f 423/423/423 393/393/393 424/424/424
f 353/353/353 37/37/37 36/36/36
f 353/353/353 36/36/36 41/41/41
f 41/41/41 424/424/424 393/393/393
f 41/41/41 393/393/393 39/39/39
